<?xml version='1.0' encoding='utf-8'?>
<!DOCTYPE svg PUBLIC '-//W3C//DTD SVG 1.1//EN' 'http://www.w3.org/Graphics/SVG/1.1/DTD/svg11.dtd'>
<!-- Generator: Adobe Illustrator 16.0.0, SVG Export Plug-In . SVG Version: 6.00 Build 0)  -->
<svg x="0px" viewBox="-3345.25 -2606 32 32" height="32px" xmlns:xlink="http://www.w3.org/1999/xlink" width="32px" enable-background="new -3345.25 -2606 32 32" y="0px" xmlns="http://www.w3.org/2000/svg" xml:space="preserve" version="1.1">
 <g id="Layer_1"/>
 <g id="Ebene_1">
  <g>
   <g>
    <path fill="#1A171B" d="M-3329.249-2602.5c-6.892,0-12.5,5.607-12.5,12.5s5.607,12.5,12.5,12.5c6.893,0,12.5-5.607,12.5-12.5&#xd;&#xa;&#x9;&#x9;&#x9;&#x9;S-3322.355-2602.5-3329.249-2602.5z M-3329.249-2580.132c-5.441,0-9.87-4.427-9.87-9.868c0-5.442,4.429-9.869,9.87-9.869&#xd;&#xa;&#x9;&#x9;&#x9;&#x9;c5.442,0,9.87,4.428,9.87,9.869C-3319.378-2584.56-3323.805-2580.132-3329.249-2580.132z"/>
    <path fill="#1A171B" d="M-3321.589-2593.808c-0.9-1.26-2.399-1.422-3.604-1.422h-1.704v-1.646c0-0.668-0.542-1.209-1.21-1.209&#xd;&#xa;&#x9;&#x9;&#x9;&#x9;h-2.281c-0.668,0-1.21,0.541-1.21,1.209v1.646h-1.702c-1.205,0-2.704,0.162-3.606,1.422c-0.688,0.961-1.007,2.22-1.007,3.963&#xd;&#xa;&#x9;&#x9;&#x9;&#x9;c0,2.1,0.601,3.817,1.609,4.593c0.881,0.679,1.506,0.793,2.573,0.793c1.258,0,2.214-0.49,2.982-0.883&#xd;&#xa;&#x9;&#x9;&#x9;&#x9;c0.579-0.297,1.036-0.531,1.501-0.531s0.923,0.234,1.502,0.532c0.767,0.393,1.724,0.882,2.982,0.882&#xd;&#xa;&#x9;&#x9;&#x9;&#x9;c1.065,0,1.69-0.114,2.572-0.792c1.009-0.776,1.611-2.493,1.611-4.595C-3320.581-2591.588-3320.902-2592.848-3321.589-2593.808z&#xd;&#xa;&#x9;&#x9;&#x9;&#x9; M-3323.667-2587.168c-0.335,0.259-0.378,0.292-1.097,0.292c-0.675,0-1.233-0.287-1.879-0.618&#xd;&#xa;&#x9;&#x9;&#x9;&#x9;c-0.729-0.373-1.557-0.796-2.605-0.796s-1.875,0.423-2.604,0.796c-0.646,0.332-1.204,0.618-1.879,0.618&#xd;&#xa;&#x9;&#x9;&#x9;&#x9;c-0.719,0-0.762-0.033-1.096-0.292c-0.142-0.112-0.668-0.893-0.668-2.677c0-1.197,0.181-2.033,0.555-2.555&#xd;&#xa;&#x9;&#x9;&#x9;&#x9;c0.126-0.176,0.434-0.411,1.64-0.411h8.107c1.205,0,1.512,0.234,1.638,0.411c0.374,0.522,0.556,1.358,0.556,2.555&#xd;&#xa;&#x9;&#x9;&#x9;&#x9;C-3323-2588.06-3323.527-2587.28-3323.667-2587.168z"/>
   </g>
   <g opacity="0.4">
    <path fill="none" stroke="#1A171B" stroke-width="1.5" d="M-3329.249-2602.5c-6.892,0-12.5,5.607-12.5,12.5s5.607,12.5,12.5,12.5&#xd;&#xa;&#x9;&#x9;&#x9;&#x9;c6.893,0,12.5-5.607,12.5-12.5S-3322.355-2602.5-3329.249-2602.5z M-3329.249-2580.132c-5.441,0-9.87-4.427-9.87-9.868&#xd;&#xa;&#x9;&#x9;&#x9;&#x9;c0-5.442,4.429-9.869,9.87-9.869c5.442,0,9.87,4.428,9.87,9.869C-3319.378-2584.56-3323.805-2580.132-3329.249-2580.132z"/>
    <path fill="none" stroke="#1A171B" stroke-width="1.5" d="M-3321.589-2593.808c-0.9-1.26-2.399-1.422-3.604-1.422h-1.704v-1.646&#xd;&#xa;&#x9;&#x9;&#x9;&#x9;c0-0.668-0.542-1.209-1.21-1.209h-2.281c-0.668,0-1.21,0.541-1.21,1.209v1.646h-1.702c-1.205,0-2.704,0.162-3.606,1.422&#xd;&#xa;&#x9;&#x9;&#x9;&#x9;c-0.688,0.961-1.007,2.22-1.007,3.963c0,2.1,0.601,3.817,1.609,4.593c0.881,0.679,1.506,0.793,2.573,0.793&#xd;&#xa;&#x9;&#x9;&#x9;&#x9;c1.258,0,2.214-0.49,2.982-0.883c0.579-0.297,1.036-0.531,1.501-0.531s0.923,0.234,1.502,0.532&#xd;&#xa;&#x9;&#x9;&#x9;&#x9;c0.767,0.393,1.724,0.882,2.982,0.882c1.065,0,1.69-0.114,2.572-0.792c1.009-0.776,1.611-2.493,1.611-4.595&#xd;&#xa;&#x9;&#x9;&#x9;&#x9;C-3320.581-2591.588-3320.902-2592.848-3321.589-2593.808z M-3323.667-2587.168c-0.335,0.259-0.378,0.292-1.097,0.292&#xd;&#xa;&#x9;&#x9;&#x9;&#x9;c-0.675,0-1.233-0.287-1.879-0.618c-0.729-0.373-1.557-0.796-2.605-0.796s-1.875,0.423-2.604,0.796&#xd;&#xa;&#x9;&#x9;&#x9;&#x9;c-0.646,0.332-1.204,0.618-1.879,0.618c-0.719,0-0.762-0.033-1.096-0.292c-0.142-0.112-0.668-0.893-0.668-2.677&#xd;&#xa;&#x9;&#x9;&#x9;&#x9;c0-1.197,0.181-2.033,0.555-2.555c0.126-0.176,0.434-0.411,1.64-0.411h8.107c1.205,0,1.512,0.234,1.638,0.411&#xd;&#xa;&#x9;&#x9;&#x9;&#x9;c0.374,0.522,0.556,1.358,0.556,2.555C-3323-2588.06-3323.527-2587.28-3323.667-2587.168z"/>
   </g>
   <g>
    <path fill="#FFFFFF" d="M-3329.249-2602.5c-6.892,0-12.5,5.607-12.5,12.5s5.607,12.5,12.5,12.5c6.893,0,12.5-5.607,12.5-12.5&#xd;&#xa;&#x9;&#x9;&#x9;&#x9;S-3322.355-2602.5-3329.249-2602.5z M-3329.249-2580.132c-5.441,0-9.87-4.427-9.87-9.868c0-5.442,4.429-9.869,9.87-9.869&#xd;&#xa;&#x9;&#x9;&#x9;&#x9;c5.442,0,9.87,4.428,9.87,9.869C-3319.378-2584.56-3323.805-2580.132-3329.249-2580.132z"/>
    <path fill="#FFFFFF" d="M-3321.589-2593.808c-0.9-1.26-2.399-1.422-3.604-1.422h-1.704v-1.646c0-0.668-0.542-1.209-1.21-1.209&#xd;&#xa;&#x9;&#x9;&#x9;&#x9;h-2.281c-0.668,0-1.21,0.541-1.21,1.209v1.646h-1.702c-1.205,0-2.704,0.162-3.606,1.422c-0.688,0.961-1.007,2.22-1.007,3.963&#xd;&#xa;&#x9;&#x9;&#x9;&#x9;c0,2.1,0.601,3.817,1.609,4.593c0.881,0.679,1.506,0.793,2.573,0.793c1.258,0,2.214-0.49,2.982-0.883&#xd;&#xa;&#x9;&#x9;&#x9;&#x9;c0.579-0.297,1.036-0.531,1.501-0.531s0.923,0.234,1.502,0.532c0.767,0.393,1.724,0.882,2.982,0.882&#xd;&#xa;&#x9;&#x9;&#x9;&#x9;c1.065,0,1.69-0.114,2.572-0.792c1.009-0.776,1.611-2.493,1.611-4.595C-3320.581-2591.588-3320.902-2592.848-3321.589-2593.808z&#xd;&#xa;&#x9;&#x9;&#x9;&#x9; M-3323.667-2587.168c-0.335,0.259-0.378,0.292-1.097,0.292c-0.675,0-1.233-0.287-1.879-0.618&#xd;&#xa;&#x9;&#x9;&#x9;&#x9;c-0.729-0.373-1.557-0.796-2.605-0.796s-1.875,0.423-2.604,0.796c-0.646,0.332-1.204,0.618-1.879,0.618&#xd;&#xa;&#x9;&#x9;&#x9;&#x9;c-0.719,0-0.762-0.033-1.096-0.292c-0.142-0.112-0.668-0.893-0.668-2.677c0-1.197,0.181-2.033,0.555-2.555&#xd;&#xa;&#x9;&#x9;&#x9;&#x9;c0.126-0.176,0.434-0.411,1.64-0.411h8.107c1.205,0,1.512,0.234,1.638,0.411c0.374,0.522,0.556,1.358,0.556,2.555&#xd;&#xa;&#x9;&#x9;&#x9;&#x9;C-3323-2588.06-3323.527-2587.28-3323.667-2587.168z"/>
   </g>
   <g>
    <path fill="none" stroke="#1A171B" stroke-width="0.2" d="M-3329.249-2602.5c-6.892,0-12.5,5.607-12.5,12.5s5.607,12.5,12.5,12.5&#xd;&#xa;&#x9;&#x9;&#x9;&#x9;c6.893,0,12.5-5.607,12.5-12.5S-3322.355-2602.5-3329.249-2602.5z M-3329.249-2580.132c-5.441,0-9.87-4.427-9.87-9.868&#xd;&#xa;&#x9;&#x9;&#x9;&#x9;c0-5.442,4.429-9.869,9.87-9.869c5.442,0,9.87,4.428,9.87,9.869C-3319.378-2584.56-3323.805-2580.132-3329.249-2580.132z"/>
    <path fill="none" stroke="#1A171B" stroke-width="0.2" d="M-3321.589-2593.808c-0.9-1.26-2.399-1.422-3.604-1.422h-1.704v-1.646&#xd;&#xa;&#x9;&#x9;&#x9;&#x9;c0-0.668-0.542-1.209-1.21-1.209h-2.281c-0.668,0-1.21,0.541-1.21,1.209v1.646h-1.702c-1.205,0-2.704,0.162-3.606,1.422&#xd;&#xa;&#x9;&#x9;&#x9;&#x9;c-0.688,0.961-1.007,2.22-1.007,3.963c0,2.1,0.601,3.817,1.609,4.593c0.881,0.679,1.506,0.793,2.573,0.793&#xd;&#xa;&#x9;&#x9;&#x9;&#x9;c1.258,0,2.214-0.49,2.982-0.883c0.579-0.297,1.036-0.531,1.501-0.531s0.923,0.234,1.502,0.532&#xd;&#xa;&#x9;&#x9;&#x9;&#x9;c0.767,0.393,1.724,0.882,2.982,0.882c1.065,0,1.69-0.114,2.572-0.792c1.009-0.776,1.611-2.493,1.611-4.595&#xd;&#xa;&#x9;&#x9;&#x9;&#x9;C-3320.581-2591.588-3320.902-2592.848-3321.589-2593.808z M-3323.667-2587.168c-0.335,0.259-0.378,0.292-1.097,0.292&#xd;&#xa;&#x9;&#x9;&#x9;&#x9;c-0.675,0-1.233-0.287-1.879-0.618c-0.729-0.373-1.557-0.796-2.605-0.796s-1.875,0.423-2.604,0.796&#xd;&#xa;&#x9;&#x9;&#x9;&#x9;c-0.646,0.332-1.204,0.618-1.879,0.618c-0.719,0-0.762-0.033-1.096-0.292c-0.142-0.112-0.668-0.893-0.668-2.677&#xd;&#xa;&#x9;&#x9;&#x9;&#x9;c0-1.197,0.181-2.033,0.555-2.555c0.126-0.176,0.434-0.411,1.64-0.411h8.107c1.205,0,1.512,0.234,1.638,0.411&#xd;&#xa;&#x9;&#x9;&#x9;&#x9;c0.374,0.522,0.556,1.358,0.556,2.555C-3323-2588.06-3323.527-2587.28-3323.667-2587.168z"/>
   </g>
  </g>
 </g>
 <g id="Layer_2"/>
</svg>
