<?xml version='1.0' encoding='utf-8'?>
<!DOCTYPE svg PUBLIC '-//W3C//DTD SVG 1.1//EN' 'http://www.w3.org/Graphics/SVG/1.1/DTD/svg11.dtd'>
<!-- Generator: Adobe Illustrator 16.0.0, SVG Export Plug-In . SVG Version: 6.00 Build 0)  -->
<svg x="0px" viewBox="-3345.25 -2571.333 32 32" height="32px" xmlns:xlink="http://www.w3.org/1999/xlink" width="32px" enable-background="new -3345.25 -2571.333 32 32" y="0px" xmlns="http://www.w3.org/2000/svg" xml:space="preserve" version="1.1">
 <g id="Layer_1"/>
 <g id="Ebene_1">
  <g>
   <g>
    <path fill="#1A171B" d="M-3329.25-2569.083c-7.581,0-13.75,6.168-13.75,13.749c0,7.583,6.168,13.75,13.75,13.75&#xd;&#xa;&#x9;&#x9;&#x9;&#x9;c7.583,0,13.75-6.167,13.75-13.75C-3315.5-2562.915-3321.667-2569.083-3329.25-2569.083z M-3329.25-2544.479&#xd;&#xa;&#x9;&#x9;&#x9;&#x9;c-5.985,0-10.857-4.869-10.857-10.855c0-5.986,4.872-10.855,10.857-10.855c5.987,0,10.857,4.871,10.857,10.855&#xd;&#xa;&#x9;&#x9;&#x9;&#x9;C-3318.393-2549.349-3323.262-2544.479-3329.25-2544.479z"/>
    <path fill="#1A171B" d="M-3320.825-2559.521c-0.99-1.387-2.639-1.564-3.965-1.564h-1.875v-1.812c0-0.734-0.596-1.33-1.331-1.33&#xd;&#xa;&#x9;&#x9;&#x9;&#x9;h-2.509c-0.735,0-1.331,0.596-1.331,1.33v1.812h-1.873c-1.325,0-2.974,0.178-3.967,1.564c-0.756,1.057-1.107,2.442-1.107,4.359&#xd;&#xa;&#x9;&#x9;&#x9;&#x9;c0,2.31,0.662,4.199,1.77,5.053c0.969,0.747,1.657,0.873,2.831,0.873c1.384,0,2.436-0.539,3.281-0.971&#xd;&#xa;&#x9;&#x9;&#x9;&#x9;c0.637-0.327,1.14-0.584,1.651-0.584c0.512,0,1.015,0.257,1.652,0.584c0.844,0.432,1.897,0.97,3.281,0.97&#xd;&#xa;&#x9;&#x9;&#x9;&#x9;c1.171,0,1.859-0.125,2.83-0.871c1.109-0.854,1.772-2.743,1.772-5.054C-3319.715-2557.081-3320.068-2558.466-3320.825-2559.521z&#xd;&#xa;&#x9;&#x9;&#x9;&#x9; M-3323.111-2552.218c-0.369,0.285-0.416,0.321-1.206,0.321c-0.742,0-1.357-0.315-2.067-0.679&#xd;&#xa;&#x9;&#x9;&#x9;&#x9;c-0.802-0.411-1.712-0.876-2.866-0.876c-1.153,0-2.062,0.465-2.865,0.876c-0.71,0.364-1.325,0.679-2.067,0.679&#xd;&#xa;&#x9;&#x9;&#x9;&#x9;c-0.791,0-0.838-0.036-1.205-0.32c-0.156-0.123-0.735-0.981-0.735-2.945c0-1.317,0.2-2.236,0.61-2.811&#xd;&#xa;&#x9;&#x9;&#x9;&#x9;c0.138-0.194,0.477-0.452,1.803-0.452h8.918c1.326,0,1.663,0.257,1.801,0.452c0.412,0.575,0.611,1.494,0.611,2.811&#xd;&#xa;&#x9;&#x9;&#x9;&#x9;C-3322.377-2553.199-3322.956-2552.341-3323.111-2552.218z"/>
   </g>
   <g opacity="0.4">
    <path fill="none" stroke="#1A171B" stroke-width="1.5" d="M-3329.25-2569.083c-7.581,0-13.75,6.168-13.75,13.749&#xd;&#xa;&#x9;&#x9;&#x9;&#x9;c0,7.583,6.168,13.75,13.75,13.75c7.583,0,13.75-6.167,13.75-13.75C-3315.5-2562.915-3321.667-2569.083-3329.25-2569.083z&#xd;&#xa;&#x9;&#x9;&#x9;&#x9; M-3329.25-2544.479c-5.985,0-10.857-4.869-10.857-10.855c0-5.986,4.872-10.855,10.857-10.855&#xd;&#xa;&#x9;&#x9;&#x9;&#x9;c5.987,0,10.857,4.871,10.857,10.855C-3318.393-2549.349-3323.262-2544.479-3329.25-2544.479z"/>
    <path fill="none" stroke="#1A171B" stroke-width="1.5" d="M-3320.825-2559.521c-0.99-1.387-2.639-1.564-3.965-1.564h-1.875&#xd;&#xa;&#x9;&#x9;&#x9;&#x9;v-1.812c0-0.734-0.596-1.33-1.331-1.33h-2.509c-0.735,0-1.331,0.596-1.331,1.33v1.812h-1.873c-1.325,0-2.974,0.178-3.967,1.564&#xd;&#xa;&#x9;&#x9;&#x9;&#x9;c-0.756,1.057-1.107,2.442-1.107,4.359c0,2.31,0.662,4.199,1.77,5.053c0.969,0.747,1.657,0.873,2.831,0.873&#xd;&#xa;&#x9;&#x9;&#x9;&#x9;c1.384,0,2.436-0.539,3.281-0.971c0.637-0.327,1.14-0.584,1.651-0.584c0.512,0,1.015,0.257,1.652,0.584&#xd;&#xa;&#x9;&#x9;&#x9;&#x9;c0.844,0.432,1.897,0.97,3.281,0.97c1.171,0,1.859-0.125,2.83-0.871c1.109-0.854,1.772-2.743,1.772-5.054&#xd;&#xa;&#x9;&#x9;&#x9;&#x9;C-3319.715-2557.081-3320.068-2558.466-3320.825-2559.521z M-3323.111-2552.218c-0.369,0.285-0.416,0.321-1.206,0.321&#xd;&#xa;&#x9;&#x9;&#x9;&#x9;c-0.742,0-1.357-0.315-2.067-0.679c-0.802-0.411-1.712-0.876-2.866-0.876c-1.153,0-2.062,0.465-2.865,0.876&#xd;&#xa;&#x9;&#x9;&#x9;&#x9;c-0.71,0.364-1.325,0.679-2.067,0.679c-0.791,0-0.838-0.036-1.205-0.32c-0.156-0.123-0.735-0.981-0.735-2.945&#xd;&#xa;&#x9;&#x9;&#x9;&#x9;c0-1.317,0.2-2.236,0.61-2.811c0.138-0.194,0.477-0.452,1.803-0.452h8.918c1.326,0,1.663,0.257,1.801,0.452&#xd;&#xa;&#x9;&#x9;&#x9;&#x9;c0.412,0.575,0.611,1.494,0.611,2.811C-3322.377-2553.199-3322.956-2552.341-3323.111-2552.218z"/>
   </g>
   <g>
    <path fill="#FFFFFF" d="M-3329.25-2569.083c-7.581,0-13.75,6.168-13.75,13.749c0,7.583,6.168,13.75,13.75,13.75&#xd;&#xa;&#x9;&#x9;&#x9;&#x9;c7.583,0,13.75-6.167,13.75-13.75C-3315.5-2562.915-3321.667-2569.083-3329.25-2569.083z M-3329.25-2544.479&#xd;&#xa;&#x9;&#x9;&#x9;&#x9;c-5.985,0-10.857-4.869-10.857-10.855c0-5.986,4.872-10.855,10.857-10.855c5.987,0,10.857,4.871,10.857,10.855&#xd;&#xa;&#x9;&#x9;&#x9;&#x9;C-3318.393-2549.349-3323.262-2544.479-3329.25-2544.479z"/>
    <path fill="#FFFFFF" d="M-3320.825-2559.521c-0.99-1.387-2.639-1.564-3.965-1.564h-1.875v-1.812c0-0.734-0.596-1.33-1.331-1.33&#xd;&#xa;&#x9;&#x9;&#x9;&#x9;h-2.509c-0.735,0-1.331,0.596-1.331,1.33v1.812h-1.873c-1.325,0-2.974,0.178-3.967,1.564c-0.756,1.057-1.107,2.442-1.107,4.359&#xd;&#xa;&#x9;&#x9;&#x9;&#x9;c0,2.31,0.662,4.199,1.77,5.053c0.969,0.747,1.657,0.873,2.831,0.873c1.384,0,2.436-0.539,3.281-0.971&#xd;&#xa;&#x9;&#x9;&#x9;&#x9;c0.637-0.327,1.14-0.584,1.651-0.584c0.512,0,1.015,0.257,1.652,0.584c0.844,0.432,1.897,0.97,3.281,0.97&#xd;&#xa;&#x9;&#x9;&#x9;&#x9;c1.171,0,1.859-0.125,2.83-0.871c1.109-0.854,1.772-2.743,1.772-5.054C-3319.715-2557.081-3320.068-2558.466-3320.825-2559.521z&#xd;&#xa;&#x9;&#x9;&#x9;&#x9; M-3323.111-2552.218c-0.369,0.285-0.416,0.321-1.206,0.321c-0.742,0-1.357-0.315-2.067-0.679&#xd;&#xa;&#x9;&#x9;&#x9;&#x9;c-0.802-0.411-1.712-0.876-2.866-0.876c-1.153,0-2.062,0.465-2.865,0.876c-0.71,0.364-1.325,0.679-2.067,0.679&#xd;&#xa;&#x9;&#x9;&#x9;&#x9;c-0.791,0-0.838-0.036-1.205-0.32c-0.156-0.123-0.735-0.981-0.735-2.945c0-1.317,0.2-2.236,0.61-2.811&#xd;&#xa;&#x9;&#x9;&#x9;&#x9;c0.138-0.194,0.477-0.452,1.803-0.452h8.918c1.326,0,1.663,0.257,1.801,0.452c0.412,0.575,0.611,1.494,0.611,2.811&#xd;&#xa;&#x9;&#x9;&#x9;&#x9;C-3322.377-2553.199-3322.956-2552.341-3323.111-2552.218z"/>
   </g>
   <g>
    <path fill="none" stroke="#1A171B" stroke-width="0.2" d="M-3329.25-2569.083c-7.581,0-13.75,6.168-13.75,13.749&#xd;&#xa;&#x9;&#x9;&#x9;&#x9;c0,7.583,6.168,13.75,13.75,13.75c7.583,0,13.75-6.167,13.75-13.75C-3315.5-2562.915-3321.667-2569.083-3329.25-2569.083z&#xd;&#xa;&#x9;&#x9;&#x9;&#x9; M-3329.25-2544.479c-5.985,0-10.857-4.869-10.857-10.855c0-5.986,4.872-10.855,10.857-10.855&#xd;&#xa;&#x9;&#x9;&#x9;&#x9;c5.987,0,10.857,4.871,10.857,10.855C-3318.393-2549.349-3323.262-2544.479-3329.25-2544.479z"/>
    <path fill="none" stroke="#1A171B" stroke-width="0.2" d="M-3320.825-2559.521c-0.99-1.387-2.639-1.564-3.965-1.564h-1.875&#xd;&#xa;&#x9;&#x9;&#x9;&#x9;v-1.812c0-0.734-0.596-1.33-1.331-1.33h-2.509c-0.735,0-1.331,0.596-1.331,1.33v1.812h-1.873c-1.325,0-2.974,0.178-3.967,1.564&#xd;&#xa;&#x9;&#x9;&#x9;&#x9;c-0.756,1.057-1.107,2.442-1.107,4.359c0,2.31,0.662,4.199,1.77,5.053c0.969,0.747,1.657,0.873,2.831,0.873&#xd;&#xa;&#x9;&#x9;&#x9;&#x9;c1.384,0,2.436-0.539,3.281-0.971c0.637-0.327,1.14-0.584,1.651-0.584c0.512,0,1.015,0.257,1.652,0.584&#xd;&#xa;&#x9;&#x9;&#x9;&#x9;c0.844,0.432,1.897,0.97,3.281,0.97c1.171,0,1.859-0.125,2.83-0.871c1.109-0.854,1.772-2.743,1.772-5.054&#xd;&#xa;&#x9;&#x9;&#x9;&#x9;C-3319.715-2557.081-3320.068-2558.466-3320.825-2559.521z M-3323.111-2552.218c-0.369,0.285-0.416,0.321-1.206,0.321&#xd;&#xa;&#x9;&#x9;&#x9;&#x9;c-0.742,0-1.357-0.315-2.067-0.679c-0.802-0.411-1.712-0.876-2.866-0.876c-1.153,0-2.062,0.465-2.865,0.876&#xd;&#xa;&#x9;&#x9;&#x9;&#x9;c-0.71,0.364-1.325,0.679-2.067,0.679c-0.791,0-0.838-0.036-1.205-0.32c-0.156-0.123-0.735-0.981-0.735-2.945&#xd;&#xa;&#x9;&#x9;&#x9;&#x9;c0-1.317,0.2-2.236,0.61-2.811c0.138-0.194,0.477-0.452,1.803-0.452h8.918c1.326,0,1.663,0.257,1.801,0.452&#xd;&#xa;&#x9;&#x9;&#x9;&#x9;c0.412,0.575,0.611,1.494,0.611,2.811C-3322.377-2553.199-3322.956-2552.341-3323.111-2552.218z"/>
   </g>
  </g>
 </g>
 <g id="Layer_2"/>
</svg>
