<?xml version='1.0' encoding='utf-8'?>
<!DOCTYPE svg PUBLIC '-//W3C//DTD SVG 1.1 Tiny//EN' 'http://www.w3.org/Graphics/SVG/1.1/DTD/svg11-tiny.dtd'>
<!-- Generator: Adobe Illustrator 16.0.0, SVG Export Plug-In . SVG Version: 6.00 Build 0)  -->
<svg y="0px" width="130px" version="1.1" xmlns:x="http://ns.adobe.com/Extensibility/1.0/" xmlns:graph="http://ns.adobe.com/Graphs/1.0/" xml:space="preserve" xmlns:i="http://ns.adobe.com/AdobeIllustrator/10.0/" baseProfile="tiny" height="130px" xmlns:a="http://ns.adobe.com/AdobeSVGViewerExtensions/3.0/" viewBox="0 0 130 130" xmlns="http://www.w3.org/2000/svg" x="0px" xmlns:xlink="http://www.w3.org/1999/xlink">
 <g id="Layer_1"/>
 <g id="Layer_2">
  <g>
   <path d="M65,23.3C42,23.3,23.3,42,23.3,65S42,106.7,65,106.7c23,0,41.7-18.7,41.7-41.7S88,23.3,65,23.3z M36.4,86.1&#xd;&#xa;&#x9;&#x9;&#x9;c-0.2,0.2-1.1,0.4-2.1-0.1c-2.1-3.1-3.8-6.5-4.9-10.2c1.4,0.9,3,1.7,4.7,2.4c0.7,0.8,1.3,1.8,1.7,2.8c0.6,1.3,0.9,2.7,0.9,3.7&#xd;&#xa;&#x9;&#x9;&#x9;C36.8,85.3,36.6,85.8,36.4,86.1z M65,102.2c-10.7,0-20.4-4.6-27.2-11.9c0.5-0.2,1.1-0.5,1.5-0.8c0.8-0.6,1.3-1.4,1.6-2.3&#xd;&#xa;&#x9;&#x9;&#x9;c0.3-0.8,0.4-1.7,0.4-2.6c0-1.5-0.3-3-0.9-4.5c2.2,0.5,4.6,1,7,1.3c1.2,0.2,2.5,0.3,3.8,0.4c0,1.5,0.1,3.1,0.1,4.6l2.7-0.1&#xd;&#xa;&#x9;&#x9;&#x9;c-0.1-1.4-0.1-2.8-0.1-4.3c3,0.2,6.1,0.3,9.2,0.3c7.4,0,14.9-0.6,21.5-1.7c3.3-0.6,6.4-1.2,9.1-2c2.3-0.7,5.2-1.8,7-2.9&#xd;&#xa;&#x9;&#x9;&#x9;C95.9,91.1,81.8,102.2,65,102.2z M102,69.4c-0.5,0.6-1.1,1.3-2,1.8c-0.7,0.4-1.5,0.8-2.3,1.2c0.3-7.5,0.1-12.7-1.8-19.6&#xd;&#xa;&#x9;&#x9;&#x9;c-3.3-5.8-6.1-8.7-11.6-13c-1.9,2.4-3.7,3.7-9.5,8.5c2,9.7,2.1,19,1.8,28.9c-4.4,0.5-9.1,0.7-13.7,0.7c-3.1,0-6.2-0.1-9.3-0.3&#xd;&#xa;&#x9;&#x9;&#x9;c-0.1-4.2-0.1-8.3-0.1-12.5c0-0.6,0-1.2,0-1.7c7.8-0.8,14.1-7.7,13.6-13.4c-0.6-6-6.7-9.2-13.5-8.9c-6.8,0.3-12.1,4.4-13.1,10.3&#xd;&#xa;&#x9;&#x9;&#x9;c-0.9,5.6,2.7,11.5,10.3,12c0,0.6,0,1.1,0,1.7c0,4.1,0,8.2,0.1,12.3c-2.7-0.3-5.2-0.6-7.6-1.1c-2.9-0.6-5.5-1.3-7.7-2.2&#xd;&#xa;&#x9;&#x9;&#x9;c-2.2-0.9-4.1-1.8-5.8-3.1c-0.7-0.6-1.4-1.3-2-1.9c-0.1-1.3-0.2-2.6-0.2-4c0-20.5,16.7-37.2,37.2-37.2c20.5,0,37.2,16.7,37.2,37.2&#xd;&#xa;&#x9;&#x9;&#x9;C102.2,66.5,102.1,68,102,69.4z" fill="#FFFFFF"/>
   <g>
    <path d="M65,27.8c-20.5,0-37.2,16.7-37.2,37.2c0,1.4,0.1,2.7,0.2,4c0.6,0.6,1.3,1.4,2,1.9c1.7,1.3,3.6,2.2,5.8,3.1&#xd;&#xa;&#x9;&#x9;&#x9;&#x9;c2.2,0.9,4.8,1.6,7.7,2.2c2.4,0.5,4.9,0.8,7.6,1.1c-0.1-4.1-0.1-8.2-0.1-12.3c0-0.6,0-1.1,0-1.7c-7.5-0.5-11.2-6.4-10.3-12&#xd;&#xa;&#x9;&#x9;&#x9;&#x9;c1-5.9,6.3-10.1,13.1-10.3c6.8-0.3,12.9,2.9,13.5,8.9c0.5,5.7-5.8,12.6-13.6,13.4c0,0.6,0,1.2,0,1.7c0,4.2,0,8.4,0.1,12.5&#xd;&#xa;&#x9;&#x9;&#x9;&#x9;c3,0.2,6.1,0.3,9.3,0.3c4.6,0,9.3-0.3,13.7-0.7c0.3-9.9,0.2-19.2-1.8-28.9c5.8-4.8,7.5-6.1,9.5-8.5c5.5,4.3,8.3,7.2,11.6,13&#xd;&#xa;&#x9;&#x9;&#x9;&#x9;c1.9,6.9,2.2,12.1,1.8,19.6c0.8-0.4,1.6-0.8,2.3-1.2c0.8-0.5,1.5-1.2,2-1.8c0.2-1.5,0.3-2.9,0.3-4.4&#xd;&#xa;&#x9;&#x9;&#x9;&#x9;C102.2,44.5,85.5,27.8,65,27.8z" fill="#000000"/>
    <path d="M34.1,78.2c-1.7-0.7-3.3-1.5-4.7-2.4c1.1,3.7,2.8,7.1,4.9,10.2c1.1,0.5,2,0.3,2.1,0.1c0.2-0.3,0.3-0.8,0.3-1.4&#xd;&#xa;&#x9;&#x9;&#x9;&#x9;c0-1-0.3-2.4-0.9-3.7C35.4,80,34.8,79,34.1,78.2z" fill="#000000"/>
    <path d="M84.5,80.7c-6.6,1.1-14.1,1.7-21.5,1.7c-3.1,0-6.2-0.1-9.2-0.3c0,1.4,0.1,2.8,0.1,4.3l-2.7,0.1c-0.1-1.5-0.1-3.1-0.1-4.6&#xd;&#xa;&#x9;&#x9;&#x9;&#x9;c-1.3-0.1-2.5-0.3-3.8-0.4c-2.5-0.3-4.8-0.8-7-1.3c0.6,1.5,0.9,3,0.9,4.5c0,0.9-0.1,1.7-0.4,2.6c-0.3,0.8-0.8,1.6-1.6,2.3&#xd;&#xa;&#x9;&#x9;&#x9;&#x9;c-0.4,0.4-1,0.6-1.5,0.8c6.8,7.3,16.5,11.9,27.2,11.9c16.8,0,30.9-11.1,35.6-26.4c-1.8,1-4.8,2.2-7,2.9&#xd;&#xa;&#x9;&#x9;&#x9;&#x9;C90.8,79.5,87.8,80.2,84.5,80.7z" fill="#000000"/>
    <path d="M65,8.9C34,8.9,8.9,34,8.9,65c0,31,25.1,56.1,56.1,56.1S121.1,96,121.1,65C121.1,34,96,8.9,65,8.9z M65,106.7&#xd;&#xa;&#x9;&#x9;&#x9;&#x9;C42,106.7,23.3,88,23.3,65S42,23.3,65,23.3c23,0,41.7,18.7,41.7,41.7S88,106.7,65,106.7z" fill="#000000"/>
   </g>
  </g>
 </g>
</svg>
