<?xml version='1.0' encoding='utf-8'?>
<!DOCTYPE svg PUBLIC '-//W3C//DTD SVG 1.1 Tiny//EN' 'http://www.w3.org/Graphics/SVG/1.1/DTD/svg11-tiny.dtd'>
<!-- Generator: Adobe Illustrator 16.0.0, SVG Export Plug-In . SVG Version: 6.00 Build 0)  -->
<svg y="0px" width="130px" version="1.1" xmlns:x="http://ns.adobe.com/Extensibility/1.0/" xmlns:graph="http://ns.adobe.com/Graphs/1.0/" xml:space="preserve" xmlns:i="http://ns.adobe.com/AdobeIllustrator/10.0/" baseProfile="tiny" height="130px" xmlns:a="http://ns.adobe.com/AdobeSVGViewerExtensions/3.0/" viewBox="0 0 130 130" xmlns="http://www.w3.org/2000/svg" x="0px" xmlns:xlink="http://www.w3.org/1999/xlink">
 <g id="Layer_1"/>
 <g id="Layer_2">
  <g>
   <path d="M64.999,18.622c-25.573,0-46.378,20.805-46.378,46.379s20.805,46.379,46.378,46.379&#xd;&#xa;&#x9;&#x9;&#x9;c25.574,0,46.38-20.805,46.38-46.379S90.573,18.622,64.999,18.622z M33.225,88.409c-0.208,0.258-1.174,0.453-2.383-0.086&#xd;&#xa;&#x9;&#x9;&#x9;c-2.356-3.441-4.206-7.254-5.442-11.332c1.561,1.025,3.312,1.914,5.244,2.686c0.768,0.904,1.441,1.984,1.939,3.094&#xd;&#xa;&#x9;&#x9;&#x9;c0.676,1.482,1.023,3.021,1.016,4.111C33.604,87.573,33.46,88.116,33.225,88.409z M64.999,106.379&#xd;&#xa;&#x9;&#x9;&#x9;c-11.938,0-22.705-5.088-30.265-13.203c0.611-0.211,1.192-0.512,1.679-0.916c0.842-0.695,1.402-1.605,1.73-2.529&#xd;&#xa;&#x9;&#x9;&#x9;c0.33-0.93,0.454-1.887,0.456-2.85c-0.007-1.66-0.384-3.369-1.013-5.049c2.465,0.592,5.084,1.07,7.816,1.449&#xd;&#xa;&#x9;&#x9;&#x9;c1.371,0.189,2.77,0.354,4.19,0.494c0.048,1.697,0.099,3.395,0.162,5.092l2.998-0.111c-0.06-1.578-0.106-3.16-0.151-4.74&#xd;&#xa;&#x9;&#x9;&#x9;c3.33,0.244,6.738,0.375,10.172,0.375c8.25,0,16.574-0.67,23.892-1.898c3.659-0.613,7.067-1.367,10.101-2.256&#xd;&#xa;&#x9;&#x9;&#x9;c2.531-0.744,5.783-2.037,7.813-3.172C99.403,94.014,83.62,106.379,64.999,106.379z M106.077,69.915&#xd;&#xa;&#x9;&#x9;&#x9;c-0.54,0.693-1.258,1.424-2.181,1.996c-0.76,0.471-1.614,0.91-2.509,1.32c0.379-8.307,0.14-14.092-2.021-21.748&#xd;&#xa;&#x9;&#x9;&#x9;c-3.701-6.447-6.739-9.688-12.884-14.461c-2.157,2.668-4.086,4.139-10.514,9.443c2.278,10.818,2.341,21.166,2.021,32.133&#xd;&#xa;&#x9;&#x9;&#x9;c-4.91,0.508-10.077,0.793-15.216,0.793c-3.485,0-6.945-0.131-10.291-0.389c-0.094-4.639-0.14-9.279-0.14-13.922&#xd;&#xa;&#x9;&#x9;&#x9;c0-0.648,0.007-1.297,0.008-1.945c8.691-0.9,15.7-8.543,15.093-14.873c-0.643-6.689-7.455-10.227-14.98-9.945&#xd;&#xa;&#x9;&#x9;&#x9;c-7.527,0.281-13.414,4.895-14.517,11.502c-1.042,6.246,3.05,12.754,11.404,13.361c-0.001,0.633-0.008,1.268-0.008,1.9&#xd;&#xa;&#x9;&#x9;&#x9;c0.001,4.549,0.044,9.1,0.133,13.65c-2.947-0.307-5.776-0.717-8.401-1.248c-3.203-0.648-6.109-1.469-8.565-2.445&#xd;&#xa;&#x9;&#x9;&#x9;c-2.458-0.975-4.577-1.975-6.451-3.473c-0.766-0.613-1.542-1.4-2.195-2.117c-0.157-1.463-0.242-2.945-0.242-4.447&#xd;&#xa;&#x9;&#x9;&#x9;c0-22.816,18.562-41.379,41.378-41.379c22.817,0,41.38,18.562,41.38,41.379C106.379,66.665,106.269,68.301,106.077,69.915z" fill="#FFFFFF"/>
   <g>
    <path d="M64.999,23.622c-22.815,0-41.378,18.562-41.378,41.379c0,1.502,0.085,2.984,0.242,4.447&#xd;&#xa;&#x9;&#x9;&#x9;&#x9;c0.653,0.717,1.43,1.504,2.195,2.117c1.874,1.498,3.993,2.498,6.451,3.473c2.456,0.977,5.362,1.797,8.565,2.445&#xd;&#xa;&#x9;&#x9;&#x9;&#x9;c2.625,0.531,5.454,0.941,8.401,1.248c-0.089-4.551-0.132-9.102-0.133-13.65c0-0.633,0.007-1.268,0.008-1.9&#xd;&#xa;&#x9;&#x9;&#x9;&#x9;c-8.354-0.607-12.446-7.115-11.404-13.361c1.103-6.607,6.989-11.221,14.517-11.502c7.525-0.281,14.338,3.256,14.98,9.945&#xd;&#xa;&#x9;&#x9;&#x9;&#x9;c0.607,6.33-6.401,13.973-15.093,14.873c-0.001,0.648-0.008,1.297-0.008,1.945c0,4.643,0.046,9.283,0.14,13.922&#xd;&#xa;&#x9;&#x9;&#x9;&#x9;c3.346,0.258,6.806,0.389,10.291,0.389c5.139,0,10.306-0.285,15.216-0.793c0.32-10.967,0.258-21.314-2.021-32.133&#xd;&#xa;&#x9;&#x9;&#x9;&#x9;c6.428-5.305,8.356-6.775,10.514-9.443c6.145,4.773,9.183,8.014,12.884,14.461c2.16,7.656,2.399,13.441,2.021,21.748&#xd;&#xa;&#x9;&#x9;&#x9;&#x9;c0.895-0.41,1.749-0.85,2.509-1.32c0.923-0.572,1.641-1.303,2.181-1.996c0.191-1.613,0.302-3.25,0.302-4.914&#xd;&#xa;&#x9;&#x9;&#x9;&#x9;C106.379,42.184,87.816,23.622,64.999,23.622z" fill="#000000"/>
    <path d="M30.644,79.676c-1.932-0.771-3.684-1.66-5.244-2.686c1.236,4.078,3.086,7.891,5.442,11.332&#xd;&#xa;&#x9;&#x9;&#x9;&#x9;c1.209,0.539,2.175,0.344,2.383,0.086c0.235-0.293,0.379-0.836,0.374-1.527c0.008-1.09-0.34-2.629-1.016-4.111&#xd;&#xa;&#x9;&#x9;&#x9;&#x9;C32.085,81.661,31.411,80.581,30.644,79.676z" fill="#000000"/>
    <path d="M86.666,82.493c-7.317,1.229-15.642,1.898-23.892,1.898c-3.434,0-6.842-0.131-10.172-0.375&#xd;&#xa;&#x9;&#x9;&#x9;&#x9;c0.045,1.58,0.092,3.162,0.151,4.74l-2.998,0.111c-0.063-1.697-0.114-3.395-0.162-5.092c-1.421-0.141-2.819-0.305-4.19-0.494&#xd;&#xa;&#x9;&#x9;&#x9;&#x9;c-2.732-0.379-5.352-0.857-7.816-1.449c0.629,1.68,1.006,3.389,1.013,5.049c-0.002,0.963-0.126,1.92-0.456,2.85&#xd;&#xa;&#x9;&#x9;&#x9;&#x9;c-0.328,0.924-0.889,1.834-1.73,2.529c-0.486,0.404-1.067,0.705-1.679,0.916c7.56,8.115,18.327,13.203,30.265,13.203&#xd;&#xa;&#x9;&#x9;&#x9;&#x9;c18.621,0,34.404-12.365,39.581-29.314c-2.03,1.135-5.282,2.428-7.813,3.172C93.733,81.125,90.325,81.879,86.666,82.493z" fill="#000000"/>
    <path d="M64.999,2.637C30.558,2.637,2.638,30.557,2.638,65c0,34.441,27.92,62.361,62.361,62.361S127.362,99.442,127.362,65&#xd;&#xa;&#x9;&#x9;&#x9;&#x9;C127.362,30.557,99.44,2.637,64.999,2.637z M64.999,111.379c-25.573,0-46.378-20.805-46.378-46.379s20.805-46.379,46.378-46.379&#xd;&#xa;&#x9;&#x9;&#x9;&#x9;c25.574,0,46.38,20.805,46.38,46.379S90.573,111.379,64.999,111.379z" fill="#000000"/>
   </g>
  </g>
 </g>
</svg>
