<?xml version='1.0' encoding='utf-8'?>
<!DOCTYPE svg PUBLIC '-//W3C//DTD SVG 1.0//EN' 'http://www.w3.org/TR/2001/REC-SVG-20010904/DTD/svg10.dtd'>
<!-- Generator: Adobe Illustrator 16.0.0, SVG Export Plug-In . SVG Version: 6.00 Build 0)  -->
<svg x="0px" viewBox="-3506.667 -2571.333 32 32" height="32px" xmlns:a="http://ns.adobe.com/AdobeSVGViewerExtensions/3.0/" xmlns:graph="http://ns.adobe.com/Graphs/1.0/" xmlns:xlink="http://www.w3.org/1999/xlink" width="32px" enable-background="new -3506.667 -2571.333 32 32" y="0px" xmlns="http://www.w3.org/2000/svg" xml:space="preserve" version="1.0" xmlns:x="http://ns.adobe.com/Extensibility/1.0/" xmlns:i="http://ns.adobe.com/AdobeIllustrator/10.0/">
 <g id="Layer_1"/>
 <g id="Ebene_1">
  <g>
   <g opacity="0.4">
    <path fill="none" stroke="#1A171B" stroke-width="1.5" d="M-3492.223-2555.718c0.189,0.552,0.706,0.899,1.259,0.899&#xd;&#xa;&#x9;&#x9;&#x9;&#x9;c0.143,0,0.289-0.023,0.431-0.072c0.696-0.238,1.065-0.995,0.828-1.69l-2.291-6.688c-0.238-0.694-0.997-1.063-1.689-0.827&#xd;&#xa;&#x9;&#x9;&#x9;&#x9;c-0.696,0.238-1.065,0.994-0.828,1.689L-3492.223-2555.718z"/>
    <path fill="none" stroke="#1A171B" stroke-width="1.5" d="M-3490.667-2569.083c-7.581,0-13.749,6.168-13.749,13.75&#xd;&#xa;&#x9;&#x9;&#x9;&#x9;c0,7.582,6.168,13.75,13.749,13.75c7.582,0,13.75-6.167,13.75-13.75C-3476.917-2562.916-3483.085-2569.083-3490.667-2569.083z&#xd;&#xa;&#x9;&#x9;&#x9;&#x9; M-3490.667-2544.245c-6.113,0-11.087-4.974-11.087-11.089c0-6.114,4.974-11.088,11.087-11.088&#xd;&#xa;&#x9;&#x9;&#x9;&#x9;c6.114,0,11.089,4.974,11.089,11.088C-3479.578-2549.219-3484.553-2544.245-3490.667-2544.245z"/>
    <path fill="none" stroke="#1A171B" stroke-width="1.5" d="M-3481.619-2558.586c-0.74-2.158-3.132-3.446-6.399-3.446&#xd;&#xa;&#x9;&#x9;&#x9;&#x9;c-0.84,0-1.718,0.098-2.601,0.27l0.871,2.542c0.59-0.097,1.172-0.151,1.73-0.151c2.015,0,3.538,0.647,3.881,1.647&#xd;&#xa;&#x9;&#x9;&#x9;&#x9;c0.523,1.526-1.594,4.154-5.468,5.481c-1.28,0.438-2.595,0.671-3.801,0.671c-2.015,0-3.538-0.647-3.88-1.647&#xd;&#xa;&#x9;&#x9;&#x9;&#x9;c-0.425-1.242,0.892-3.208,3.479-4.615l-0.87-2.54c-3.883,1.971-6.077,5.24-5.127,8.017c0.739,2.157,3.132,3.445,6.398,3.445&#xd;&#xa;&#x9;&#x9;&#x9;&#x9;c1.083,0,2.228-0.152,3.367-0.436l0.657,1.917c0.19,0.553,0.706,0.899,1.259,0.899c0.143,0,0.289-0.023,0.432-0.072&#xd;&#xa;&#x9;&#x9;&#x9;&#x9;c0.694-0.239,1.066-0.995,0.827-1.69l-0.656-1.915C-3483.161-2552.118-3480.607-2555.631-3481.619-2558.586z"/>
   </g>
   <g>
    <path fill="#FFFFFF" stroke="#000000" stroke-width="0.2" d="M-3492.223-2555.718c0.189,0.552,0.706,0.899,1.259,0.899&#xd;&#xa;&#x9;&#x9;&#x9;&#x9;c0.143,0,0.289-0.023,0.431-0.072c0.696-0.238,1.065-0.995,0.828-1.69l-2.291-6.688c-0.238-0.694-0.997-1.063-1.689-0.827&#xd;&#xa;&#x9;&#x9;&#x9;&#x9;c-0.696,0.238-1.065,0.994-0.828,1.689L-3492.223-2555.718z"/>
    <path fill="#FFFFFF" stroke="#000000" stroke-width="0.2" d="M-3490.667-2569.083c-7.581,0-13.749,6.168-13.749,13.75&#xd;&#xa;&#x9;&#x9;&#x9;&#x9;c0,7.582,6.168,13.75,13.749,13.75c7.582,0,13.75-6.167,13.75-13.75C-3476.917-2562.916-3483.085-2569.083-3490.667-2569.083z&#xd;&#xa;&#x9;&#x9;&#x9;&#x9; M-3490.667-2544.245c-6.113,0-11.087-4.974-11.087-11.089c0-6.114,4.974-11.088,11.087-11.088&#xd;&#xa;&#x9;&#x9;&#x9;&#x9;c6.114,0,11.089,4.974,11.089,11.088C-3479.578-2549.219-3484.553-2544.245-3490.667-2544.245z"/>
    <path fill="#FFFFFF" stroke="#000000" stroke-width="0.2" d="M-3481.619-2558.586c-0.74-2.158-3.132-3.446-6.399-3.446&#xd;&#xa;&#x9;&#x9;&#x9;&#x9;c-0.84,0-1.718,0.098-2.601,0.27l0.871,2.542c0.59-0.097,1.172-0.151,1.73-0.151c2.015,0,3.538,0.647,3.881,1.647&#xd;&#xa;&#x9;&#x9;&#x9;&#x9;c0.523,1.526-1.594,4.154-5.468,5.481c-1.28,0.438-2.595,0.671-3.801,0.671c-2.015,0-3.538-0.647-3.88-1.647&#xd;&#xa;&#x9;&#x9;&#x9;&#x9;c-0.425-1.242,0.892-3.208,3.479-4.615l-0.87-2.54c-3.883,1.971-6.077,5.24-5.127,8.017c0.739,2.157,3.132,3.445,6.398,3.445&#xd;&#xa;&#x9;&#x9;&#x9;&#x9;c1.083,0,2.228-0.152,3.367-0.436l0.657,1.917c0.19,0.553,0.706,0.899,1.259,0.899c0.143,0,0.289-0.023,0.432-0.072&#xd;&#xa;&#x9;&#x9;&#x9;&#x9;c0.694-0.239,1.066-0.995,0.827-1.69l-0.656-1.915C-3483.161-2552.118-3480.607-2555.631-3481.619-2558.586z"/>
   </g>
  </g>
 </g>
 <g id="Layer_2"/>
</svg>
