<?xml version='1.0' encoding='utf-8'?>
<!DOCTYPE svg PUBLIC '-//W3C//DTD SVG 1.0//EN' 'http://www.w3.org/TR/2001/REC-SVG-20010904/DTD/svg10.dtd'>
<!-- Generator: Adobe Illustrator 16.0.0, SVG Export Plug-In . SVG Version: 6.00 Build 0)  -->
<svg x="0px" viewBox="-3469.25 -2571.333 32 32" height="32px" xmlns:a="http://ns.adobe.com/AdobeSVGViewerExtensions/3.0/" xmlns:graph="http://ns.adobe.com/Graphs/1.0/" xmlns:xlink="http://www.w3.org/1999/xlink" width="32px" enable-background="new -3469.25 -2571.333 32 32" y="0px" xmlns="http://www.w3.org/2000/svg" xml:space="preserve" version="1.0" xmlns:x="http://ns.adobe.com/Extensibility/1.0/" xmlns:i="http://ns.adobe.com/AdobeIllustrator/10.0/">
 <g id="Layer_1">
  <g>
   <g opacity="0.4">
    <path fill="none" stroke="#1A171B" stroke-width="1.5" d="M-3454.742-2555.645c0.188,0.547,0.7,0.891,1.248,0.891&#xd;&#xa;&#x9;&#x9;&#x9;&#x9;c0.141,0,0.286-0.022,0.427-0.071c0.688-0.236,1.055-0.986,0.819-1.674l-2.271-6.625c-0.235-0.689-0.983-1.054-1.675-0.82&#xd;&#xa;&#x9;&#x9;&#x9;&#x9;c-0.688,0.236-1.055,0.986-0.819,1.674L-3454.742-2555.645z"/>
    <path fill="none" stroke="#1A171B" stroke-width="1.5" d="M-3453.25-2569.083c-7.581,0-13.75,6.168-13.75,13.749&#xd;&#xa;&#x9;&#x9;&#x9;&#x9;c0,7.582,6.168,13.75,13.75,13.75c7.582,0,13.75-6.167,13.75-13.75C-3439.5-2562.915-3445.668-2569.083-3453.25-2569.083z&#xd;&#xa;&#x9;&#x9;&#x9;&#x9; M-3453.25-2544.479c-5.986,0-10.857-4.87-10.857-10.855c0-5.985,4.871-10.856,10.857-10.856c5.987,0,10.856,4.871,10.856,10.856&#xd;&#xa;&#x9;&#x9;&#x9;&#x9;C-3442.393-2549.348-3447.263-2544.479-3453.25-2544.479z"/>
    <path fill="none" stroke="#1A171B" stroke-width="1.5" d="M-3448.298-2550.341l-2.067-1.035l1.036-2.066&#xd;&#xa;&#x9;&#x9;&#x9;&#x9;c0.252-0.506,0.048-1.12-0.457-1.374c-0.505-0.252-1.122-0.048-1.374,0.457l-1.034,2.065l-2.066-1.034&#xd;&#xa;&#x9;&#x9;&#x9;&#x9;c-0.506-0.252-1.121-0.048-1.375,0.457c-0.252,0.506-0.047,1.122,0.457,1.374l2.066,1.034l-1.036,2.066&#xd;&#xa;&#x9;&#x9;&#x9;&#x9;c-0.252,0.504-0.047,1.119,0.457,1.373c0.253,0.126,0.534,0.138,0.783,0.055c0.248-0.083,0.467-0.26,0.592-0.512l1.035-2.066&#xd;&#xa;&#x9;&#x9;&#x9;&#x9;l2.066,1.035c0.252,0.127,0.531,0.139,0.779,0.056c0.249-0.083,0.468-0.261,0.594-0.513&#xd;&#xa;&#x9;&#x9;&#x9;&#x9;C-3447.59-2549.474-3447.794-2550.089-3448.298-2550.341z"/>
    <path fill="none" stroke="#1A171B" stroke-width="1.5" d="M-3455.54-2550.776c-0.326-0.164-0.579-0.414-0.752-0.707&#xd;&#xa;&#x9;&#x9;&#x9;&#x9;c-1.805-0.076-3.152-0.689-3.469-1.615c-0.245-0.712,0.099-1.669,0.939-2.626c0.635-0.724,1.512-1.395,2.53-1.951l-0.862-2.52&#xd;&#xa;&#x9;&#x9;&#x9;&#x9;c-1.457,0.736-2.719,1.67-3.649,2.731c-1.503,1.712-2.019,3.566-1.452,5.22c0.731,2.136,3.102,3.412,6.338,3.412&#xd;&#xa;&#x9;&#x9;&#x9;&#x9;c0.363,0,0.734-0.018,1.109-0.051l0.612-1.22L-3455.54-2550.776z"/>
    <path fill="none" stroke="#1A171B" stroke-width="1.5" d="M-3444.238-2558.416c-0.733-2.138-3.102-3.413-6.338-3.413&#xd;&#xa;&#x9;&#x9;&#x9;&#x9;c-0.826,0-1.687,0.095-2.555,0.263l0.864,2.52c0.576-0.093,1.146-0.147,1.69-0.147c1.996,0,3.505,0.641,3.844,1.632&#xd;&#xa;&#x9;&#x9;&#x9;&#x9;c0.245,0.71-0.099,1.667-0.939,2.624c-0.227,0.258-0.488,0.508-0.772,0.75c0.059,0.365,0.013,0.751-0.165,1.106l-0.673,1.345&#xd;&#xa;&#x9;&#x9;&#x9;&#x9;l1.163,0.582c0.944-0.601,1.769-1.291,2.429-2.043C-3444.188-2554.909-3443.672-2556.763-3444.238-2558.416z"/>
   </g>
   <g>
    <path fill="#FFFFFF" stroke="#000000" stroke-width="0.2" d="M-3454.742-2555.645c0.188,0.547,0.7,0.891,1.248,0.891&#xd;&#xa;&#x9;&#x9;&#x9;&#x9;c0.141,0,0.286-0.022,0.427-0.071c0.688-0.236,1.055-0.986,0.819-1.674l-2.271-6.625c-0.235-0.689-0.983-1.054-1.675-0.82&#xd;&#xa;&#x9;&#x9;&#x9;&#x9;c-0.688,0.236-1.055,0.986-0.819,1.674L-3454.742-2555.645z"/>
    <path fill="#FFFFFF" stroke="#000000" stroke-width="0.2" d="M-3453.25-2569.083c-7.581,0-13.75,6.168-13.75,13.749&#xd;&#xa;&#x9;&#x9;&#x9;&#x9;c0,7.582,6.168,13.75,13.75,13.75c7.582,0,13.75-6.167,13.75-13.75C-3439.5-2562.915-3445.668-2569.083-3453.25-2569.083z&#xd;&#xa;&#x9;&#x9;&#x9;&#x9; M-3453.25-2544.479c-5.986,0-10.857-4.87-10.857-10.855c0-5.985,4.871-10.856,10.857-10.856c5.987,0,10.856,4.871,10.856,10.856&#xd;&#xa;&#x9;&#x9;&#x9;&#x9;C-3442.393-2549.348-3447.263-2544.479-3453.25-2544.479z"/>
    <path fill="#FFFFFF" stroke="#000000" stroke-width="0.2" d="M-3448.298-2550.341l-2.067-1.035l1.036-2.066&#xd;&#xa;&#x9;&#x9;&#x9;&#x9;c0.252-0.506,0.048-1.12-0.457-1.374c-0.505-0.252-1.122-0.048-1.374,0.457l-1.034,2.065l-2.066-1.034&#xd;&#xa;&#x9;&#x9;&#x9;&#x9;c-0.506-0.252-1.121-0.048-1.375,0.457c-0.252,0.506-0.047,1.122,0.457,1.374l2.066,1.034l-1.036,2.066&#xd;&#xa;&#x9;&#x9;&#x9;&#x9;c-0.252,0.504-0.047,1.119,0.457,1.373c0.253,0.126,0.534,0.138,0.783,0.055c0.248-0.083,0.467-0.26,0.592-0.512l1.035-2.066&#xd;&#xa;&#x9;&#x9;&#x9;&#x9;l2.066,1.035c0.252,0.127,0.531,0.139,0.779,0.056c0.249-0.083,0.468-0.261,0.594-0.513&#xd;&#xa;&#x9;&#x9;&#x9;&#x9;C-3447.59-2549.474-3447.794-2550.089-3448.298-2550.341z"/>
    <path fill="#FFFFFF" stroke="#000000" stroke-width="0.2" d="M-3455.54-2550.776c-0.326-0.164-0.579-0.414-0.752-0.707&#xd;&#xa;&#x9;&#x9;&#x9;&#x9;c-1.805-0.076-3.152-0.689-3.469-1.615c-0.245-0.712,0.099-1.669,0.939-2.626c0.635-0.724,1.512-1.395,2.53-1.951l-0.862-2.52&#xd;&#xa;&#x9;&#x9;&#x9;&#x9;c-1.457,0.736-2.719,1.67-3.649,2.731c-1.503,1.712-2.019,3.566-1.452,5.22c0.731,2.136,3.102,3.412,6.338,3.412&#xd;&#xa;&#x9;&#x9;&#x9;&#x9;c0.363,0,0.734-0.018,1.109-0.051l0.612-1.22L-3455.54-2550.776z"/>
    <path fill="#FFFFFF" stroke="#000000" stroke-width="0.2" d="M-3444.238-2558.416c-0.733-2.138-3.102-3.413-6.338-3.413&#xd;&#xa;&#x9;&#x9;&#x9;&#x9;c-0.826,0-1.687,0.095-2.555,0.263l0.864,2.52c0.576-0.093,1.146-0.147,1.69-0.147c1.996,0,3.505,0.641,3.844,1.632&#xd;&#xa;&#x9;&#x9;&#x9;&#x9;c0.245,0.71-0.099,1.667-0.939,2.624c-0.227,0.258-0.488,0.508-0.772,0.75c0.059,0.365,0.013,0.751-0.165,1.106l-0.673,1.345&#xd;&#xa;&#x9;&#x9;&#x9;&#x9;l1.163,0.582c0.944-0.601,1.769-1.291,2.429-2.043C-3444.188-2554.909-3443.672-2556.763-3444.238-2558.416z"/>
   </g>
  </g>
 </g>
 <g id="Ebene_1"/>
 <g id="Layer_2"/>
</svg>
