<?xml version='1.0' encoding='utf-8'?>
<!DOCTYPE svg PUBLIC '-//W3C//DTD SVG 1.0//EN' 'http://www.w3.org/TR/2001/REC-SVG-20010904/DTD/svg10.dtd'>
<!-- Generator: Adobe Illustrator 16.0.0, SVG Export Plug-In . SVG Version: 6.00 Build 0)  -->
<svg x="0px" viewBox="-3469.25 -2606 32 32" height="32px" xmlns:a="http://ns.adobe.com/AdobeSVGViewerExtensions/3.0/" xmlns:graph="http://ns.adobe.com/Graphs/1.0/" xmlns:xlink="http://www.w3.org/1999/xlink" width="32px" enable-background="new -3469.25 -2606 32 32" y="0px" xmlns="http://www.w3.org/2000/svg" xml:space="preserve" version="1.0" xmlns:x="http://ns.adobe.com/Extensibility/1.0/" xmlns:i="http://ns.adobe.com/AdobeIllustrator/10.0/">
 <g id="Layer_1">
  <g>
   <g opacity="0.4">
    <path fill="none" stroke="#1A171B" stroke-width="1.5" d="M-3454.606-2590.283c0.17,0.498,0.636,0.81,1.134,0.81&#xd;&#xa;&#x9;&#x9;&#x9;&#x9;c0.128,0,0.26-0.021,0.389-0.065c0.626-0.215,0.959-0.896,0.745-1.522l-2.064-6.023c-0.214-0.626-0.894-0.958-1.522-0.745&#xd;&#xa;&#x9;&#x9;&#x9;&#x9;c-0.626,0.215-0.959,0.896-0.745,1.521L-3454.606-2590.283z"/>
    <path fill="none" stroke="#1A171B" stroke-width="1.5" d="M-3453.25-2602.499c-6.892,0-12.5,5.607-12.5,12.499&#xd;&#xa;&#x9;&#x9;&#x9;&#x9;c0,6.893,5.607,12.5,12.5,12.5s12.5-5.607,12.5-12.5C-3440.75-2596.892-3446.357-2602.499-3453.25-2602.499z M-3453.25-2580.131&#xd;&#xa;&#x9;&#x9;&#x9;&#x9;c-5.442,0-9.87-4.427-9.87-9.869s4.428-9.869,9.87-9.869s9.87,4.428,9.87,9.869S-3447.807-2580.131-3453.25-2580.131z"/>
    <path fill="none" stroke="#1A171B" stroke-width="1.5" d="M-3448.749-2585.461l-1.879-0.941l0.941-1.878&#xd;&#xa;&#x9;&#x9;&#x9;&#x9;c0.229-0.46,0.043-1.019-0.415-1.249c-0.459-0.229-1.02-0.043-1.249,0.416l-0.94,1.877l-1.878-0.94&#xd;&#xa;&#x9;&#x9;&#x9;&#x9;c-0.46-0.229-1.019-0.044-1.25,0.416c-0.229,0.46-0.042,1.02,0.416,1.249l1.878,0.94l-0.941,1.878&#xd;&#xa;&#x9;&#x9;&#x9;&#x9;c-0.229,0.458-0.043,1.018,0.415,1.248c0.23,0.115,0.486,0.125,0.711,0.05c0.225-0.075,0.424-0.236,0.539-0.465l0.94-1.878&#xd;&#xa;&#x9;&#x9;&#x9;&#x9;l1.878,0.941c0.229,0.116,0.483,0.126,0.708,0.051c0.226-0.075,0.425-0.237,0.54-0.466&#xd;&#xa;&#x9;&#x9;&#x9;&#x9;C-3448.104-2584.672-3448.29-2585.232-3448.749-2585.461z"/>
    <path fill="none" stroke="#1A171B" stroke-width="1.5" d="M-3455.332-2585.856c-0.296-0.148-0.526-0.376-0.684-0.642&#xd;&#xa;&#x9;&#x9;&#x9;&#x9;c-1.641-0.069-2.866-0.626-3.153-1.469c-0.222-0.647,0.09-1.518,0.854-2.388c0.577-0.658,1.375-1.268,2.3-1.773l-0.784-2.291&#xd;&#xa;&#x9;&#x9;&#x9;&#x9;c-1.325,0.669-2.472,1.518-3.318,2.482c-1.366,1.557-1.835,3.242-1.32,4.746c0.665,1.942,2.82,3.102,5.762,3.102&#xd;&#xa;&#x9;&#x9;&#x9;&#x9;c0.331,0,0.668-0.016,1.009-0.046l0.557-1.109L-3455.332-2585.856z"/>
    <path fill="none" stroke="#1A171B" stroke-width="1.5" d="M-3445.058-2592.802c-0.666-1.943-2.82-3.103-5.762-3.103&#xd;&#xa;&#x9;&#x9;&#x9;&#x9;c-0.751,0-1.534,0.086-2.322,0.239l0.786,2.291c0.524-0.085,1.042-0.134,1.537-0.134c1.815,0,3.187,0.583,3.495,1.484&#xd;&#xa;&#x9;&#x9;&#x9;&#x9;c0.222,0.646-0.09,1.516-0.854,2.386c-0.206,0.235-0.444,0.462-0.702,0.682c0.054,0.332,0.012,0.683-0.15,1.005l-0.612,1.223&#xd;&#xa;&#x9;&#x9;&#x9;&#x9;l1.057,0.529c0.858-0.546,1.608-1.174,2.208-1.857C-3445.012-2589.614-3444.543-2591.299-3445.058-2592.802z"/>
   </g>
   <g>
    <path fill="#FFFFFF" stroke="#000000" stroke-width="0.2" d="M-3454.606-2590.283c0.17,0.498,0.636,0.81,1.134,0.81&#xd;&#xa;&#x9;&#x9;&#x9;&#x9;c0.128,0,0.26-0.021,0.389-0.065c0.626-0.215,0.959-0.896,0.745-1.522l-2.064-6.023c-0.214-0.626-0.894-0.958-1.522-0.745&#xd;&#xa;&#x9;&#x9;&#x9;&#x9;c-0.626,0.215-0.959,0.896-0.745,1.521L-3454.606-2590.283z"/>
    <path fill="#FFFFFF" stroke="#000000" stroke-width="0.2" d="M-3453.25-2602.499c-6.892,0-12.5,5.607-12.5,12.499&#xd;&#xa;&#x9;&#x9;&#x9;&#x9;c0,6.893,5.607,12.5,12.5,12.5s12.5-5.607,12.5-12.5C-3440.75-2596.892-3446.357-2602.499-3453.25-2602.499z M-3453.25-2580.131&#xd;&#xa;&#x9;&#x9;&#x9;&#x9;c-5.442,0-9.87-4.427-9.87-9.869s4.428-9.869,9.87-9.869s9.87,4.428,9.87,9.869S-3447.807-2580.131-3453.25-2580.131z"/>
    <path fill="#FFFFFF" stroke="#000000" stroke-width="0.2" d="M-3448.749-2585.461l-1.879-0.941l0.941-1.878&#xd;&#xa;&#x9;&#x9;&#x9;&#x9;c0.229-0.46,0.043-1.019-0.415-1.249c-0.459-0.229-1.02-0.043-1.249,0.416l-0.94,1.877l-1.878-0.94&#xd;&#xa;&#x9;&#x9;&#x9;&#x9;c-0.46-0.229-1.019-0.044-1.25,0.416c-0.229,0.46-0.042,1.02,0.416,1.249l1.878,0.94l-0.941,1.878&#xd;&#xa;&#x9;&#x9;&#x9;&#x9;c-0.229,0.458-0.043,1.018,0.415,1.248c0.23,0.115,0.486,0.125,0.711,0.05c0.225-0.075,0.424-0.236,0.539-0.465l0.94-1.878&#xd;&#xa;&#x9;&#x9;&#x9;&#x9;l1.878,0.941c0.229,0.116,0.483,0.126,0.708,0.051c0.226-0.075,0.425-0.237,0.54-0.466&#xd;&#xa;&#x9;&#x9;&#x9;&#x9;C-3448.104-2584.672-3448.29-2585.232-3448.749-2585.461z"/>
    <path fill="#FFFFFF" stroke="#000000" stroke-width="0.2" d="M-3455.332-2585.856c-0.296-0.148-0.526-0.376-0.684-0.642&#xd;&#xa;&#x9;&#x9;&#x9;&#x9;c-1.641-0.069-2.866-0.626-3.153-1.469c-0.222-0.647,0.09-1.518,0.854-2.388c0.577-0.658,1.375-1.268,2.3-1.773l-0.784-2.291&#xd;&#xa;&#x9;&#x9;&#x9;&#x9;c-1.325,0.669-2.472,1.518-3.318,2.482c-1.366,1.557-1.835,3.242-1.32,4.746c0.665,1.942,2.82,3.102,5.762,3.102&#xd;&#xa;&#x9;&#x9;&#x9;&#x9;c0.331,0,0.668-0.016,1.009-0.046l0.557-1.109L-3455.332-2585.856z"/>
    <path fill="#FFFFFF" stroke="#000000" stroke-width="0.2" d="M-3445.058-2592.802c-0.666-1.943-2.82-3.103-5.762-3.103&#xd;&#xa;&#x9;&#x9;&#x9;&#x9;c-0.751,0-1.534,0.086-2.322,0.239l0.786,2.291c0.524-0.085,1.042-0.134,1.537-0.134c1.815,0,3.187,0.583,3.495,1.484&#xd;&#xa;&#x9;&#x9;&#x9;&#x9;c0.222,0.646-0.09,1.516-0.854,2.386c-0.206,0.235-0.444,0.462-0.702,0.682c0.054,0.332,0.012,0.683-0.15,1.005l-0.612,1.223&#xd;&#xa;&#x9;&#x9;&#x9;&#x9;l1.057,0.529c0.858-0.546,1.608-1.174,2.208-1.857C-3445.012-2589.614-3444.543-2591.299-3445.058-2592.802z"/>
   </g>
  </g>
 </g>
 <g id="Ebene_1"/>
 <g id="Layer_2"/>
</svg>
