<?xml version='1.0' encoding='utf-8'?>
<!DOCTYPE svg PUBLIC '-//W3C//DTD SVG 1.0//EN' 'http://www.w3.org/TR/2001/REC-SVG-20010904/DTD/svg10.dtd'>
<!-- Generator: Adobe Illustrator 16.0.0, SVG Export Plug-In . SVG Version: 6.00 Build 0)  -->
<svg x="0px" viewBox="-3506.667 -2606 32 32" height="32px" xmlns:a="http://ns.adobe.com/AdobeSVGViewerExtensions/3.0/" xmlns:graph="http://ns.adobe.com/Graphs/1.0/" xmlns:xlink="http://www.w3.org/1999/xlink" width="32px" enable-background="new -3506.667 -2606 32 32" y="0px" xmlns="http://www.w3.org/2000/svg" xml:space="preserve" version="1.0" xmlns:x="http://ns.adobe.com/Extensibility/1.0/" xmlns:i="http://ns.adobe.com/AdobeIllustrator/10.0/">
 <g id="Layer_1"/>
 <g id="Ebene_1">
  <g>
   <g opacity="0.4">
    <path fill="none" stroke="#1A171B" stroke-width="1.5" d="M-3492.081-2590.35c0.172,0.502,0.642,0.817,1.145,0.817&#xd;&#xa;&#x9;&#x9;&#x9;&#x9;c0.13,0,0.262-0.021,0.392-0.065c0.632-0.216,0.969-0.904,0.752-1.537l-2.083-6.08c-0.216-0.631-0.906-0.966-1.536-0.752&#xd;&#xa;&#x9;&#x9;&#x9;&#x9;c-0.633,0.216-0.969,0.904-0.753,1.536L-3492.081-2590.35z"/>
    <path fill="none" stroke="#1A171B" stroke-width="1.5" d="M-3490.667-2602.5c-6.892,0-12.499,5.607-12.499,12.5&#xd;&#xa;&#x9;&#x9;&#x9;&#x9;s5.607,12.5,12.499,12.5s12.5-5.607,12.5-12.5S-3483.775-2602.5-3490.667-2602.5z M-3490.667-2579.919&#xd;&#xa;&#x9;&#x9;&#x9;&#x9;c-5.558,0-10.08-4.521-10.08-10.081c0-5.559,4.522-10.08,10.08-10.08c5.559,0,10.081,4.521,10.081,10.08&#xd;&#xa;&#x9;&#x9;&#x9;&#x9;C-3480.586-2584.441-3485.108-2579.919-3490.667-2579.919z"/>
    <path fill="none" stroke="#1A171B" stroke-width="1.5" d="M-3482.441-2592.957c-0.672-1.961-2.847-3.132-5.817-3.132&#xd;&#xa;&#x9;&#x9;&#x9;&#x9;c-0.764,0-1.562,0.089-2.365,0.246l0.792,2.311c0.536-0.088,1.065-0.138,1.573-0.138c1.832,0,3.216,0.588,3.528,1.498&#xd;&#xa;&#x9;&#x9;&#x9;&#x9;c0.476,1.387-1.449,3.776-4.971,4.983c-1.164,0.398-2.359,0.61-3.456,0.61c-1.832,0-3.216-0.588-3.528-1.497&#xd;&#xa;&#x9;&#x9;&#x9;&#x9;c-0.386-1.129,0.811-2.917,3.163-4.195l-0.791-2.309c-3.53,1.792-5.525,4.764-4.661,7.288c0.672,1.961,2.847,3.132,5.817,3.132&#xd;&#xa;&#x9;&#x9;&#x9;&#x9;c0.985,0,2.025-0.138,3.061-0.396l0.598,1.743c0.172,0.502,0.642,0.818,1.145,0.818c0.13,0,0.263-0.021,0.393-0.065&#xd;&#xa;&#x9;&#x9;&#x9;&#x9;c0.631-0.217,0.969-0.904,0.751-1.537l-0.597-1.741C-3483.843-2587.077-3481.522-2590.271-3482.441-2592.957z"/>
   </g>
   <g>
    <path fill="#FFFFFF" stroke="#000000" stroke-width="0.2" d="M-3492.081-2590.35c0.172,0.502,0.642,0.817,1.145,0.817&#xd;&#xa;&#x9;&#x9;&#x9;&#x9;c0.13,0,0.262-0.021,0.392-0.065c0.632-0.216,0.969-0.904,0.752-1.537l-2.083-6.08c-0.216-0.631-0.906-0.966-1.536-0.752&#xd;&#xa;&#x9;&#x9;&#x9;&#x9;c-0.633,0.216-0.969,0.904-0.753,1.536L-3492.081-2590.35z"/>
    <path fill="#FFFFFF" stroke="#000000" stroke-width="0.2" d="M-3490.667-2602.5c-6.892,0-12.499,5.607-12.499,12.5&#xd;&#xa;&#x9;&#x9;&#x9;&#x9;s5.607,12.5,12.499,12.5s12.5-5.607,12.5-12.5S-3483.775-2602.5-3490.667-2602.5z M-3490.667-2579.919&#xd;&#xa;&#x9;&#x9;&#x9;&#x9;c-5.558,0-10.08-4.521-10.08-10.081c0-5.559,4.522-10.08,10.08-10.08c5.559,0,10.081,4.521,10.081,10.08&#xd;&#xa;&#x9;&#x9;&#x9;&#x9;C-3480.586-2584.441-3485.108-2579.919-3490.667-2579.919z"/>
    <path fill="#FFFFFF" stroke="#000000" stroke-width="0.2" d="M-3482.441-2592.957c-0.672-1.961-2.847-3.132-5.817-3.132&#xd;&#xa;&#x9;&#x9;&#x9;&#x9;c-0.764,0-1.562,0.089-2.365,0.246l0.792,2.311c0.536-0.088,1.065-0.138,1.573-0.138c1.832,0,3.216,0.588,3.528,1.498&#xd;&#xa;&#x9;&#x9;&#x9;&#x9;c0.476,1.387-1.449,3.776-4.971,4.983c-1.164,0.398-2.359,0.61-3.456,0.61c-1.832,0-3.216-0.588-3.528-1.497&#xd;&#xa;&#x9;&#x9;&#x9;&#x9;c-0.386-1.129,0.811-2.917,3.163-4.195l-0.791-2.309c-3.53,1.792-5.525,4.764-4.661,7.288c0.672,1.961,2.847,3.132,5.817,3.132&#xd;&#xa;&#x9;&#x9;&#x9;&#x9;c0.985,0,2.025-0.138,3.061-0.396l0.598,1.743c0.172,0.502,0.642,0.818,1.145,0.818c0.13,0,0.263-0.021,0.393-0.065&#xd;&#xa;&#x9;&#x9;&#x9;&#x9;c0.631-0.217,0.969-0.904,0.751-1.537l-0.597-1.741C-3483.843-2587.077-3481.522-2590.271-3482.441-2592.957z"/>
   </g>
  </g>
 </g>
 <g id="Layer_2"/>
</svg>
