<?xml version='1.0' encoding='utf-8'?>
<!DOCTYPE svg PUBLIC '-//W3C//DTD SVG 1.1 Basic//EN' 'http://www.w3.org/Graphics/SVG/1.1/DTD/svg11-basic.dtd'>
<!-- Garden Gnome Software - Skin Buttons -->
<svg x="0px" viewBox="0 0 32 32" height="32px" baseProfile="basic" xmlns:xlink="http://www.w3.org/1999/xlink" width="32px" y="0px" xmlns="http://www.w3.org/2000/svg" xml:space="preserve" version="1.1" id="Layer_1">
 <g opacity="0.4" stroke="#3C3C3C" stroke-width="1.5" transform="translate(16,16) scale(1.1) translate(-16,-16)">
  <path d="M28.178,15.758c-0.2-0.115-0.445-0.115-0.646,0l-2.839,1.639v-2.659c0-0.169-0.068-0.335-0.188-0.456&#xd;&#xa;&#x9;&#x9;s-0.286-0.189-0.456-0.189h-2.056c1.06-0.937,1.729-2.305,1.729-3.831C23.722,7.438,21.434,5.15,18.61,5.15&#xd;&#xa;&#x9;&#x9;c-2.824,0-5.112,2.289-5.112,5.112c0,1.526,0.669,2.895,1.729,3.831H11.76c0.644-0.702,1.037-1.638,1.038-2.666&#xd;&#xa;&#x9;&#x9;c-0.001-2.18-1.767-3.946-3.947-3.947c-2.18,0-3.946,1.767-3.947,3.947c0,1.028,0.394,1.964,1.037,2.666H4.144&#xd;&#xa;&#x9;&#x9;c-0.169,0-0.335,0.069-0.456,0.188C3.568,14.402,3.5,14.568,3.5,14.737v11.468c0,0.17,0.068,0.336,0.188,0.457&#xd;&#xa;&#x9;&#x9;c0.12,0.119,0.286,0.188,0.456,0.188h19.905c0.17,0,0.336-0.068,0.456-0.188c0.12-0.121,0.188-0.287,0.188-0.457v-2.66l2.839,1.641&#xd;&#xa;&#x9;&#x9;c0.2,0.115,0.445,0.115,0.646,0c0.199-0.115,0.322-0.328,0.322-0.559v-8.311C28.5,16.086,28.377,15.873,28.178,15.758z&#xd;&#xa;&#x9;&#x9; M14.788,10.262c0.004-2.111,1.712-3.818,3.823-3.822c2.111,0.004,3.819,1.711,3.823,3.822c-0.004,2.111-1.712,3.819-3.823,3.823&#xd;&#xa;&#x9;&#x9;C16.5,14.081,14.792,12.373,14.788,10.262z M8.851,8.769c1.468,0.003,2.655,1.19,2.658,2.658c-0.002,1.468-1.19,2.655-2.658,2.657&#xd;&#xa;&#x9;&#x9;c-1.467-0.002-2.655-1.189-2.657-2.657C6.196,9.959,7.383,8.772,8.851,8.769z M27.211,23.51l-2.84-1.639&#xd;&#xa;&#x9;&#x9;c-0.199-0.115-0.445-0.115-0.645,0s-0.322,0.328-0.322,0.559v3.131H4.789V15.382h18.615v2.499H10.122&#xd;&#xa;&#x9;&#x9;c-0.355,0-0.645,0.289-0.645,0.645c0,0.357,0.289,0.645,0.645,0.645H23.99c0.054,0,0.104-0.008,0.153-0.02&#xd;&#xa;&#x9;&#x9;c0.079-0.012,0.156-0.037,0.228-0.078l2.84-1.641V23.51z"/>
 </g>
 <g fill="#FFFFFF" stroke="#000000" stroke-width="0.2" transform="translate(16,16) scale(1.1) translate(-16,-16)">
  <path d="M28.178,15.758c-0.2-0.115-0.445-0.115-0.646,0l-2.839,1.639v-2.659c0-0.169-0.068-0.335-0.188-0.456&#xd;&#xa;&#x9;&#x9;s-0.286-0.189-0.456-0.189h-2.056c1.06-0.937,1.729-2.305,1.729-3.831C23.722,7.438,21.434,5.15,18.61,5.15&#xd;&#xa;&#x9;&#x9;c-2.824,0-5.112,2.289-5.112,5.112c0,1.526,0.669,2.895,1.729,3.831H11.76c0.644-0.702,1.037-1.638,1.038-2.666&#xd;&#xa;&#x9;&#x9;c-0.001-2.18-1.767-3.946-3.947-3.947c-2.18,0-3.946,1.767-3.947,3.947c0,1.028,0.394,1.964,1.037,2.666H4.144&#xd;&#xa;&#x9;&#x9;c-0.169,0-0.335,0.069-0.456,0.188C3.568,14.402,3.5,14.568,3.5,14.737v11.468c0,0.17,0.068,0.336,0.188,0.457&#xd;&#xa;&#x9;&#x9;c0.12,0.119,0.286,0.188,0.456,0.188h19.905c0.17,0,0.336-0.068,0.456-0.188c0.12-0.121,0.188-0.287,0.188-0.457v-2.66l2.839,1.641&#xd;&#xa;&#x9;&#x9;c0.2,0.115,0.445,0.115,0.646,0c0.199-0.115,0.322-0.328,0.322-0.559v-8.311C28.5,16.086,28.377,15.873,28.178,15.758z&#xd;&#xa;&#x9;&#x9; M14.788,10.262c0.004-2.111,1.712-3.818,3.823-3.822c2.111,0.004,3.819,1.711,3.823,3.822c-0.004,2.111-1.712,3.819-3.823,3.823&#xd;&#xa;&#x9;&#x9;C16.5,14.081,14.792,12.373,14.788,10.262z M8.851,8.769c1.468,0.003,2.655,1.19,2.658,2.658c-0.002,1.468-1.19,2.655-2.658,2.657&#xd;&#xa;&#x9;&#x9;c-1.467-0.002-2.655-1.189-2.657-2.657C6.196,9.959,7.383,8.772,8.851,8.769z M27.211,23.51l-2.84-1.639&#xd;&#xa;&#x9;&#x9;c-0.199-0.115-0.445-0.115-0.645,0s-0.322,0.328-0.322,0.559v3.131H4.789V15.382h18.615v2.499H10.122&#xd;&#xa;&#x9;&#x9;c-0.355,0-0.645,0.289-0.645,0.645c0,0.357,0.289,0.645,0.645,0.645H23.99c0.054,0,0.104-0.008,0.153-0.02&#xd;&#xa;&#x9;&#x9;c0.079-0.012,0.156-0.037,0.228-0.078l2.84-1.641V23.51z"/>
 </g>
</svg>
