<?xml version='1.0' encoding='utf-8'?>
<!-- Generator: Adobe Illustrator 22.0.1, SVG Export Plug-In . SVG Version: 6.00 Build 0)  -->
<svg id="Layer_1" x="0px" y="0px" xmlns:xlink="http://www.w3.org/1999/xlink" xml:space="preserve" style="enable-background:new 0 0 124.7 124.7;" xmlns="http://www.w3.org/2000/svg" version="1.1" viewBox="0 0 124.7 124.7">
 <g id="Layer_1_1_">
  <path fill="#000000" d="M12,42.1c-2.2,0-4,1.8-4,4v32.7c0,2.2,1.8,4,4,4h100.8c2.2,0,4-1.8,4-4V46c0-2.2-1.8-4-4-4H12z M30.4,73.7&#xd;&#xa;&#x9;&#x9;c-6.3,0-11.4-5.1-11.4-11.4C19,56.1,24.1,51,30.4,51c6.3,0,11.4,5.1,11.4,11.4C41.8,68.6,36.7,73.7,30.4,73.7z M62.4,73.7&#xd;&#xa;&#x9;&#x9;c-6.3,0-11.4-5.1-11.4-11.4C51,56.1,56.1,51,62.4,51c6.3,0,11.4,5.1,11.4,11.4C73.7,68.6,68.6,73.7,62.4,73.7z M94.3,73.7&#xd;&#xa;&#x9;&#x9;C88,73.7,83,68.6,83,62.4C83,56.1,88,51,94.3,51c6.3,0,11.4,5.1,11.4,11.4C105.7,68.6,100.6,73.7,94.3,73.7z"/>
 </g>
 <g id="Layer_2_1_">
  <g>
   <circle fill="#FFFFFF" r="11.4" cy="62.4" cx="30.4"/>
   <circle fill="#FFFFFF" r="11.4" cy="62.4" cx="62.4"/>
   <circle fill="#FFFFFF" r="11.4" cy="62.4" cx="94.3"/>
  </g>
 </g>
</svg>
