<?xml version='1.0' encoding='utf-8'?>
<!-- Generator: Adobe Illustrator 22.0.1, SVG Export Plug-In . SVG Version: 6.00 Build 0)  -->
<svg id="Layer_1" x="0px" y="0px" xmlns:xlink="http://www.w3.org/1999/xlink" xml:space="preserve" style="enable-background:new 0 0 124.7 124.7;" xmlns="http://www.w3.org/2000/svg" version="1.1" viewBox="0 0 124.7 124.7">
 <g id="Layer_1_1_">
  <path fill="#000000" d="M6.4,39.8c-2.4,0-4.4,2-4.4,4.4v36.3c0,2.4,2,4.4,4.4,4.4h112c2.4,0,4.4-2,4.4-4.4V44.2c0-2.4-2-4.4-4.4-4.4H6.4z M26.9,75&#xd;&#xa;&#x9;&#x9;c-7,0-12.6-5.7-12.6-12.6c0-7,5.7-12.6,12.6-12.6c7,0,12.6,5.7,12.6,12.6C39.5,69.3,33.8,75,26.9,75z M62.4,75&#xd;&#xa;&#x9;&#x9;c-7,0-12.6-5.7-12.6-12.6c0-7,5.7-12.6,12.6-12.6c7,0,12.6,5.7,12.6,12.6C75,69.3,69.3,75,62.4,75z M97.9,75&#xd;&#xa;&#x9;&#x9;c-7,0-12.6-5.7-12.6-12.6c0-7,5.7-12.6,12.6-12.6c7,0,12.6,5.7,12.6,12.6C110.5,69.3,104.8,75,97.9,75z"/>
 </g>
 <g id="Layer_2_1_">
  <g>
   <circle fill="#FFFFFF" class="st0" r="12.6" cy="62.4" cx="26.9"/>
   <circle fill="#FFFFFF" class="st0" r="12.6" cy="62.4" cx="62.4"/>
   <circle fill="#FFFFFF" class="st0" r="12.6" cy="62.4" cx="97.9"/>
  </g>
 </g>
</svg>
