<?xml version='1.0' encoding='utf-8'?>
<!DOCTYPE svg PUBLIC '-//W3C//DTD SVG 1.1 Tiny//EN' 'http://www.w3.org/Graphics/SVG/1.1/DTD/svg11-tiny.dtd'>
<!-- Generator: Adobe Illustrator 16.0.0, SVG Export Plug-In . SVG Version: 6.00 Build 0)  -->
<svg y="0px" width="130px" version="1.1" xmlns:x="http://ns.adobe.com/Extensibility/1.0/" xmlns:graph="http://ns.adobe.com/Graphs/1.0/" xml:space="preserve" xmlns:i="http://ns.adobe.com/AdobeIllustrator/10.0/" baseProfile="tiny" height="130px" xmlns:a="http://ns.adobe.com/AdobeSVGViewerExtensions/3.0/" viewBox="0 0 130 130" xmlns="http://www.w3.org/2000/svg" x="0px" xmlns:xlink="http://www.w3.org/1999/xlink">
 <g id="Layer_1"/>
 <g id="Layer_2">
  <path d="M98.8,40.1c-8.7,4.2-21,6.6-33.8,6.6s-25.2-2.4-33.8-6.6c-0.7-0.3-1.5-0.3-2.2,0.1c-0.7,0.4-1.1,1.1-1.1,1.9&#xd;&#xa;&#x9;&#x9;v45.8c0,0.8,0.4,1.5,1.1,1.9c0.4,0.2,0.8,0.3,1.2,0.3c0.3,0,0.7-0.1,1-0.2c8.7-4.2,21-6.6,33.8-6.6c12.8,0,25.2,2.4,33.8,6.6&#xd;&#xa;&#x9;&#x9;c0.7,0.3,1.5,0.3,2.2-0.1c0.7-0.4,1.1-1.1,1.1-1.9V42.1c0-0.8-0.4-1.5-1.1-1.9C100.3,39.8,99.5,39.8,98.8,40.1z M32.4,80.9V74&#xd;&#xa;&#x9;&#x9;c7.5-0.9,14.9-1.5,22.2-1.8c-0.1,0.4-0.5,0.8-1.6,1.3c-1.6,0.7-4.3,1.6-7.3,2.6C41.9,77.5,37.2,79.1,32.4,80.9z M97.6,84.4&#xd;&#xa;&#x9;&#x9;C88.6,80.9,77,78.8,65,78.8c-5.9,0-11.8,0.5-17.3,1.4c3-1,5.4-1.8,7.1-2.5c3-1.3,4.9-3.4,5.1-5.7c1.6,0,3,0,4.5-0.1l0,1l2.6,0l0-1&#xd;&#xa;&#x9;&#x9;c10.2,0.1,20.4,0.7,30.5,2V84.4z M97.6,69.5c-1.1-0.1-2.2-0.3-3.3-0.4c-0.1-4.2,0.1-7,0-11.8c-3.4-2.7-5.1-3.9-8.7-6&#xd;&#xa;&#x9;&#x9;c-3.4,3.4-5,4.6-8.4,7.3c0,0.6,0,8.5,0,9.2c-3.3-0.1-6.7-0.3-10.1-0.3l0-2.9c3.4-0.4,5.9-2.4,5.8-4.8C72.8,57,69.5,55,65.6,55&#xd;&#xa;&#x9;&#x9;c-4,0-7.2,2-7.2,4.8c0,2.4,2.6,4.4,6.1,4.8l0,3c-10.5,0-21.1,0.7-32,2V45.6c8.9,3.6,20.6,5.6,32.6,5.6c12,0,23.6-2,32.6-5.6V69.5z" fill="#FFFFFF"/>
  <g>
   <path d="M65,8.9C34,8.9,8.9,34,8.9,65c0,31,25.1,56.1,56.1,56.1S121.1,96,121.1,65C121.1,34,96,8.9,65,8.9z M102.1,87.9&#xd;&#xa;&#x9;&#x9;&#x9;c0,0.8-0.4,1.5-1.1,1.9c-0.7,0.4-1.5,0.5-2.2,0.1c-8.7-4.2-21-6.6-33.8-6.6s-25.2,2.4-33.8,6.6c-0.3,0.2-0.6,0.2-1,0.2&#xd;&#xa;&#x9;&#x9;&#x9;c-0.4,0-0.8-0.1-1.2-0.3c-0.7-0.4-1.1-1.1-1.1-1.9V42.1c0-0.8,0.4-1.5,1.1-1.9c0.7-0.4,1.5-0.5,2.2-0.1c8.7,4.2,21,6.6,33.8,6.6&#xd;&#xa;&#x9;&#x9;&#x9;c12.8,0,25.2-2.4,33.8-6.6c0.7-0.3,1.5-0.3,2.2,0.1c0.7,0.4,1.1,1.1,1.1,1.9C102.1,42.1,102.1,87.9,102.1,87.9z" fill="#000000"/>
   <path d="M54.7,72.3C47.4,72.5,40,73.1,32.4,74v6.9c4.7-1.8,9.4-3.4,13.3-4.7c3.1-1,5.7-1.9,7.3-2.6C54.2,73.1,54.6,72.6,54.7,72.3&#xd;&#xa;&#x9;&#x9;&#x9;z" fill="#000000"/>
   <path d="M32.4,45.6v23.9c10.9-1.3,21.5-1.9,32-2l0-3c-3.4-0.4-6-2.4-6.1-4.8c0-2.7,3.2-4.7,7.2-4.8c4,0,7.3,2,7.4,4.7&#xd;&#xa;&#x9;&#x9;&#x9;c0.1,2.4-2.4,4.4-5.8,4.8l0,2.9c3.3,0,6.8,0.1,10.1,0.3c0-0.8,0-8.6,0-9.2c3.4-2.7,5-3.9,8.4-7.3c3.6,2.1,5.3,3.2,8.7,6&#xd;&#xa;&#x9;&#x9;&#x9;c0.1,4.8-0.1,7.6,0,11.8c1.1,0.1,2.2,0.3,3.3,0.4V45.6C88.6,49.1,77,51.2,65,51.2C53,51.2,41.4,49.1,32.4,45.6z" fill="#000000"/>
   <path d="M67.1,73l-2.6,0l0-1c-1.5,0-3,0-4.5,0.1c-0.2,2.3-2.1,4.4-5.1,5.7c-1.7,0.7-4.1,1.5-7.1,2.5c5.5-0.9,11.3-1.4,17.3-1.4&#xd;&#xa;&#x9;&#x9;&#x9;c12,0,23.6,2,32.6,5.6V74c-10-1.3-20.3-1.9-30.5-2L67.1,73z" fill="#000000"/>
  </g>
 </g>
</svg>
