<?xml version='1.0' encoding='utf-8'?>
<!DOCTYPE svg PUBLIC '-//W3C//DTD SVG 1.1 Tiny//EN' 'http://www.w3.org/Graphics/SVG/1.1/DTD/svg11-tiny.dtd'>
<!-- Generator: Adobe Illustrator 16.0.0, SVG Export Plug-In . SVG Version: 6.00 Build 0)  -->
<svg y="0px" width="130px" version="1.1" xmlns:x="http://ns.adobe.com/Extensibility/1.0/" xmlns:graph="http://ns.adobe.com/Graphs/1.0/" xml:space="preserve" xmlns:i="http://ns.adobe.com/AdobeIllustrator/10.0/" baseProfile="tiny" height="130px" xmlns:a="http://ns.adobe.com/AdobeSVGViewerExtensions/3.0/" viewBox="0 0 130 130" xmlns="http://www.w3.org/2000/svg" x="0px" xmlns:xlink="http://www.w3.org/1999/xlink">
 <g id="Layer_1"/>
 <g id="Layer_2">
  <path d="M102.602,37.315c-9.62,4.645-23.325,7.309-37.603,7.309c-14.278,0-27.982-2.664-37.601-7.309&#xd;&#xa;&#x9;&#x9;c-0.775-0.375-1.687-0.324-2.416,0.135c-0.729,0.457-1.171,1.256-1.171,2.117v50.865c0,0.859,0.442,1.66,1.171,2.117&#xd;&#xa;&#x9;&#x9;c0.404,0.254,0.866,0.383,1.329,0.383c0.371,0,0.742-0.082,1.087-0.25c9.619-4.643,23.324-7.305,37.601-7.305&#xd;&#xa;&#x9;&#x9;c14.275,0,27.981,2.662,37.603,7.307c0.774,0.373,1.688,0.322,2.416-0.135s1.171-1.258,1.171-2.117V39.567&#xd;&#xa;&#x9;&#x9;c0-0.861-0.442-1.66-1.171-2.117C104.289,36.991,103.376,36.94,102.602,37.315z M28.812,82.671V75.04&#xd;&#xa;&#x9;&#x9;c8.368-0.988,16.595-1.648,24.719-1.975c-0.104,0.418-0.517,0.928-1.777,1.496c-1.759,0.793-4.731,1.73-8.147,2.873&#xd;&#xa;&#x9;&#x9;C39.271,78.882,34.047,80.632,28.812,82.671z M101.188,86.603c-9.926-3.98-22.858-6.225-36.189-6.225&#xd;&#xa;&#x9;&#x9;c-6.602,0-13.104,0.553-19.193,1.592c3.36-1.123,6.038-2.025,7.875-2.795c3.388-1.416,5.489-3.756,5.695-6.291&#xd;&#xa;&#x9;&#x9;c1.727-0.037,3.292-0.055,5.011-0.061l0.016,1.078l2.945-0.012l-0.014-1.066c11.312,0.08,22.697,0.816,33.854,2.211V86.603z&#xd;&#xa;&#x9;&#x9; M101.188,70.009c-1.225-0.148-2.448-0.307-3.673-0.441c-0.088-4.721,0.1-7.775,0-13.166c-3.742-3.035-5.707-4.285-9.657-6.633&#xd;&#xa;&#x9;&#x9;c-3.737,3.77-5.509,5.135-9.34,8.1c0.026,0.689,0.026,9.398,0.026,10.234c-3.691-0.162-7.486-0.283-11.203-0.307l0.019-3.26&#xd;&#xa;&#x9;&#x9;c3.769-0.477,6.532-2.703,6.441-5.387c-0.103-3.027-3.75-5.254-8.181-5.227c-4.432,0.027-8.015,2.275-7.989,5.281&#xd;&#xa;&#x9;&#x9;c0.022,2.666,2.927,4.869,6.728,5.336l0.029,3.287c-11.67,0.043-23.456,0.762-35.577,2.176V43.397&#xd;&#xa;&#x9;&#x9;c9.923,3.98,22.854,6.227,36.188,6.227c13.332,0,26.265-2.246,36.189-6.227V70.009z" fill="#FFFFFF"/>
  <g>
   <path d="M64.999,2.638c-34.441,0-62.361,27.92-62.361,62.363c0,34.441,27.92,62.361,62.361,62.361s62.363-27.92,62.363-62.361&#xd;&#xa;&#x9;&#x9;&#x9;C127.362,30.558,99.44,2.638,64.999,2.638z M106.188,90.433c0,0.859-0.442,1.66-1.171,2.117s-1.642,0.508-2.416,0.135&#xd;&#xa;&#x9;&#x9;&#x9;c-9.621-4.645-23.327-7.307-37.603-7.307c-14.276,0-27.981,2.662-37.601,7.305c-0.345,0.168-0.716,0.25-1.087,0.25&#xd;&#xa;&#x9;&#x9;&#x9;c-0.463,0-0.925-0.129-1.329-0.383c-0.729-0.457-1.171-1.258-1.171-2.117V39.567c0-0.861,0.442-1.66,1.171-2.117&#xd;&#xa;&#x9;&#x9;&#x9;c0.729-0.459,1.641-0.51,2.416-0.135c9.618,4.645,23.322,7.309,37.601,7.309c14.277,0,27.982-2.664,37.603-7.309&#xd;&#xa;&#x9;&#x9;&#x9;c0.774-0.375,1.688-0.324,2.416,0.135c0.729,0.457,1.171,1.256,1.171,2.117V90.433z" fill="#000000"/>
   <path d="M53.53,73.065c-8.124,0.326-16.351,0.986-24.719,1.975v7.631c5.235-2.039,10.459-3.789,14.794-5.236&#xd;&#xa;&#x9;&#x9;&#x9;c3.416-1.143,6.389-2.08,8.147-2.873C53.014,73.993,53.426,73.483,53.53,73.065z" fill="#000000"/>
   <path d="M28.812,43.397v26.605c12.121-1.414,23.907-2.133,35.577-2.176l-0.029-3.287c-3.801-0.467-6.705-2.67-6.728-5.336&#xd;&#xa;&#x9;&#x9;&#x9;c-0.025-3.006,3.558-5.254,7.989-5.281c4.431-0.027,8.078,2.199,8.181,5.227c0.091,2.684-2.673,4.91-6.441,5.387l-0.019,3.26&#xd;&#xa;&#x9;&#x9;&#x9;c3.717,0.023,7.512,0.145,11.203,0.307c0-0.836,0-9.545-0.026-10.234c3.831-2.965,5.603-4.33,9.34-8.1&#xd;&#xa;&#x9;&#x9;&#x9;c3.95,2.348,5.915,3.598,9.657,6.633c0.1,5.391-0.088,8.445,0,13.166c1.225,0.135,2.448,0.293,3.673,0.441V43.397&#xd;&#xa;&#x9;&#x9;&#x9;c-9.925,3.98-22.857,6.227-36.189,6.227C51.666,49.624,38.734,47.378,28.812,43.397z" fill="#000000"/>
   <path d="M67.348,73.89l-2.945,0.012l-0.016-1.078c-1.719,0.006-3.284,0.023-5.011,0.061c-0.206,2.535-2.308,4.875-5.695,6.291&#xd;&#xa;&#x9;&#x9;&#x9;c-1.837,0.77-4.515,1.672-7.875,2.795c6.089-1.039,12.592-1.592,19.193-1.592c13.331,0,26.264,2.244,36.189,6.225V75.034&#xd;&#xa;&#x9;&#x9;&#x9;c-11.157-1.395-22.542-2.131-33.854-2.211L67.348,73.89z" fill="#000000"/>
  </g>
 </g>
</svg>
