<?xml version='1.0' encoding='utf-8'?>
<!DOCTYPE svg PUBLIC '-//W3C//DTD SVG 1.1//EN' 'http://www.w3.org/Graphics/SVG/1.1/DTD/svg11.dtd'>
<!-- Generator: Adobe Illustrator 16.0.0, SVG Export Plug-In . SVG Version: 6.00 Build 0)  -->
<svg x="0px" viewBox="0 0 32 32" height="32px" xmlns:xlink="http://www.w3.org/1999/xlink" width="32px" enable-background="new 0 0 32 32" y="0px" xmlns="http://www.w3.org/2000/svg" xml:space="preserve" version="1.1">
 <g id="Layer_1">
  <g display="none" id="Layer_1_1_"/>
 </g>
 <g id="Ebene_1_1_">
  <g>
   <g>
    <path fill="#1A171B" d="M16,3.5C9.107,3.5,3.5,9.107,3.5,16S9.107,28.499,16,28.499S28.5,22.893,28.5,16S22.893,3.5,16,3.5z&#xd;&#xa;&#x9;&#x9;&#x9;&#x9; M16,26.081c-5.559,0-10.08-4.522-10.08-10.081S10.441,5.919,16,5.919S26.08,10.441,26.08,16S21.559,26.081,16,26.081z"/>
    <path fill="#1A171B" d="M23.221,10.985c-0.318-0.227-0.727-0.285-1.098-0.159C22.092,10.837,19.01,11.89,16,11.89&#xd;&#xa;&#x9;&#x9;&#x9;&#x9;c-2.996,0-6.094-1.053-6.123-1.063c-0.371-0.127-0.779-0.068-1.098,0.159c-0.318,0.228-0.508,0.594-0.508,0.984v8.002&#xd;&#xa;&#x9;&#x9;&#x9;&#x9;c0,0.404,0.203,0.783,0.539,1.006c0.201,0.135,0.436,0.203,0.672,0.203c0.156,0,0.316-0.029,0.465-0.093&#xd;&#xa;&#x9;&#x9;&#x9;&#x9;c0.029-0.013,3.061-1.262,6.053-1.262c2.977,0,6.023,1.25,6.053,1.263c0.375,0.154,0.801,0.112,1.137-0.111&#xd;&#xa;&#x9;&#x9;&#x9;&#x9;c0.336-0.225,0.539-0.602,0.539-1.006V11.97C23.729,11.579,23.539,11.212,23.221,10.985z M21.309,18.272&#xd;&#xa;&#x9;&#x9;&#x9;&#x9;c-1.334-0.402-3.305-0.865-5.309-0.865s-3.975,0.463-5.309,0.865v-4.693C12.018,13.915,14,14.309,16,14.309&#xd;&#xa;&#x9;&#x9;&#x9;&#x9;s3.982-0.394,5.309-0.729V18.272z"/>
   </g>
   <g opacity="0.4">
    <path fill="none" stroke="#3C3C3C" stroke-width="1.5" d="M16,3.5C9.107,3.5,3.5,9.107,3.5,16S9.107,28.499,16,28.499&#xd;&#xa;&#x9;&#x9;&#x9;&#x9;S28.5,22.893,28.5,16S22.893,3.5,16,3.5z M16,26.081c-5.559,0-10.08-4.522-10.08-10.081S10.441,5.919,16,5.919&#xd;&#xa;&#x9;&#x9;&#x9;&#x9;S26.08,10.441,26.08,16S21.559,26.081,16,26.081z"/>
    <path fill="none" stroke="#3C3C3C" stroke-width="1.5" d="M23.221,10.985c-0.318-0.227-0.727-0.285-1.098-0.159&#xd;&#xa;&#x9;&#x9;&#x9;&#x9;C22.092,10.837,19.01,11.89,16,11.89c-2.996,0-6.094-1.053-6.123-1.063c-0.371-0.127-0.779-0.068-1.098,0.159&#xd;&#xa;&#x9;&#x9;&#x9;&#x9;c-0.318,0.228-0.508,0.594-0.508,0.984v8.002c0,0.404,0.203,0.783,0.539,1.006c0.201,0.135,0.436,0.203,0.672,0.203&#xd;&#xa;&#x9;&#x9;&#x9;&#x9;c0.156,0,0.316-0.029,0.465-0.093c0.029-0.013,3.061-1.262,6.053-1.262c2.977,0,6.023,1.25,6.053,1.263&#xd;&#xa;&#x9;&#x9;&#x9;&#x9;c0.375,0.154,0.801,0.112,1.137-0.111c0.336-0.225,0.539-0.602,0.539-1.006V11.97C23.729,11.579,23.539,11.212,23.221,10.985z&#xd;&#xa;&#x9;&#x9;&#x9;&#x9; M21.309,18.272c-1.334-0.402-3.305-0.865-5.309-0.865s-3.975,0.463-5.309,0.865v-4.693C12.018,13.915,14,14.309,16,14.309&#xd;&#xa;&#x9;&#x9;&#x9;&#x9;s3.982-0.394,5.309-0.729V18.272z"/>
   </g>
   <g>
    <path fill="#FFFFFF" d="M16,3.5C9.107,3.5,3.5,9.107,3.5,16S9.107,28.499,16,28.499S28.5,22.893,28.5,16S22.893,3.5,16,3.5z&#xd;&#xa;&#x9;&#x9;&#x9;&#x9; M16,26.081c-5.559,0-10.08-4.522-10.08-10.081S10.441,5.919,16,5.919S26.08,10.441,26.08,16S21.559,26.081,16,26.081z"/>
    <path fill="#FFFFFF" d="M23.221,10.985c-0.318-0.227-0.727-0.285-1.098-0.159C22.092,10.837,19.01,11.89,16,11.89&#xd;&#xa;&#x9;&#x9;&#x9;&#x9;c-2.996,0-6.094-1.053-6.123-1.063c-0.371-0.127-0.779-0.068-1.098,0.159c-0.318,0.228-0.508,0.594-0.508,0.984v8.002&#xd;&#xa;&#x9;&#x9;&#x9;&#x9;c0,0.404,0.203,0.783,0.539,1.006c0.201,0.135,0.436,0.203,0.672,0.203c0.156,0,0.316-0.029,0.465-0.093&#xd;&#xa;&#x9;&#x9;&#x9;&#x9;c0.029-0.013,3.061-1.262,6.053-1.262c2.977,0,6.023,1.25,6.053,1.263c0.375,0.154,0.801,0.112,1.137-0.111&#xd;&#xa;&#x9;&#x9;&#x9;&#x9;c0.336-0.225,0.539-0.602,0.539-1.006V11.97C23.729,11.579,23.539,11.212,23.221,10.985z M21.309,18.272&#xd;&#xa;&#x9;&#x9;&#x9;&#x9;c-1.334-0.402-3.305-0.865-5.309-0.865s-3.975,0.463-5.309,0.865v-4.693C12.018,13.915,14,14.309,16,14.309&#xd;&#xa;&#x9;&#x9;&#x9;&#x9;s3.982-0.394,5.309-0.729V18.272z"/>
   </g>
   <g>
    <path fill="none" stroke="#1A171B" stroke-width="0.2" d="M16,3.5C9.107,3.5,3.5,9.107,3.5,16S9.107,28.499,16,28.499&#xd;&#xa;&#x9;&#x9;&#x9;&#x9;S28.5,22.893,28.5,16S22.893,3.5,16,3.5z M16,26.081c-5.559,0-10.08-4.522-10.08-10.081S10.441,5.919,16,5.919&#xd;&#xa;&#x9;&#x9;&#x9;&#x9;S26.08,10.441,26.08,16S21.559,26.081,16,26.081z"/>
    <path fill="none" stroke="#1A171B" stroke-width="0.2" d="M23.221,10.985c-0.318-0.227-0.727-0.285-1.098-0.159&#xd;&#xa;&#x9;&#x9;&#x9;&#x9;C22.092,10.837,19.01,11.89,16,11.89c-2.996,0-6.094-1.053-6.123-1.063c-0.371-0.127-0.779-0.068-1.098,0.159&#xd;&#xa;&#x9;&#x9;&#x9;&#x9;c-0.318,0.228-0.508,0.594-0.508,0.984v8.002c0,0.404,0.203,0.783,0.539,1.006c0.201,0.135,0.436,0.203,0.672,0.203&#xd;&#xa;&#x9;&#x9;&#x9;&#x9;c0.156,0,0.316-0.029,0.465-0.093c0.029-0.013,3.061-1.262,6.053-1.262c2.977,0,6.023,1.25,6.053,1.263&#xd;&#xa;&#x9;&#x9;&#x9;&#x9;c0.375,0.154,0.801,0.112,1.137-0.111c0.336-0.225,0.539-0.602,0.539-1.006V11.97C23.729,11.579,23.539,11.212,23.221,10.985z&#xd;&#xa;&#x9;&#x9;&#x9;&#x9; M21.309,18.272c-1.334-0.402-3.305-0.865-5.309-0.865s-3.975,0.463-5.309,0.865v-4.693C12.018,13.915,14,14.309,16,14.309&#xd;&#xa;&#x9;&#x9;&#x9;&#x9;s3.982-0.394,5.309-0.729V18.272z"/>
   </g>
  </g>
 </g>
</svg>
