<?xml version='1.0' encoding='utf-8'?>
<!DOCTYPE svg PUBLIC '-//W3C//DTD SVG 1.1//EN' 'http://www.w3.org/Graphics/SVG/1.1/DTD/svg11.dtd'>
<!-- Generator: Adobe Illustrator 16.0.0, SVG Export Plug-In . SVG Version: 6.00 Build 0)  -->
<svg x="0px" viewBox="0 0 32 32" height="32px" xmlns:xlink="http://www.w3.org/1999/xlink" width="32px" enable-background="new 0 0 32 32" y="0px" xmlns="http://www.w3.org/2000/svg" xml:space="preserve" version="1.1">
 <g id="Layer_1">
  <g display="none" id="Layer_1_1_"/>
 </g>
 <g id="Ebene_1_1_">
  <g>
   <g>
    <path fill="#1A171B" d="M16,2.25C8.418,2.25,2.25,8.418,2.25,16S8.418,29.749,16,29.749S29.75,23.582,29.75,16&#xd;&#xa;&#x9;&#x9;&#x9;&#x9;S23.582,2.25,16,2.25z M16,27.089C9.886,27.089,4.912,22.114,4.912,16S9.886,4.911,16,4.911S27.088,9.886,27.088,16&#xd;&#xa;&#x9;&#x9;&#x9;&#x9;S22.114,27.089,16,27.089z"/>
    <path fill="#1A171B" d="M23.942,10.483c-0.35-0.25-0.799-0.313-1.207-0.175c-0.034,0.012-3.425,1.17-6.735,1.17&#xd;&#xa;&#x9;&#x9;&#x9;&#x9;c-3.296,0-6.703-1.158-6.735-1.17c-0.408-0.141-0.857-0.074-1.208,0.175c-0.35,0.251-0.559,0.653-0.559,1.083v8.803&#xd;&#xa;&#x9;&#x9;&#x9;&#x9;c0,0.444,0.224,0.861,0.594,1.106c0.221,0.147,0.479,0.223,0.738,0.223c0.172,0,0.349-0.032,0.512-0.102&#xd;&#xa;&#x9;&#x9;&#x9;&#x9;c0.032-0.014,3.366-1.388,6.658-1.388c3.274,0,6.626,1.375,6.658,1.389c0.412,0.17,0.881,0.123,1.25-0.122&#xd;&#xa;&#x9;&#x9;&#x9;&#x9;c0.369-0.247,0.593-0.662,0.593-1.106v-8.803C24.501,11.137,24.293,10.732,23.942,10.483z M21.839,18.5&#xd;&#xa;&#x9;&#x9;&#x9;&#x9;c-1.467-0.443-3.635-0.952-5.839-0.952s-4.372,0.509-5.84,0.952v-5.163c1.459,0.369,3.64,0.803,5.84,0.803&#xd;&#xa;&#x9;&#x9;&#x9;&#x9;s4.381-0.434,5.839-0.803V18.5z"/>
   </g>
   <g opacity="0.4">
    <path fill="none" stroke="#3C3C3C" stroke-width="1.5" d="M16,2.25C8.418,2.25,2.25,8.418,2.25,16S8.418,29.749,16,29.749&#xd;&#xa;&#x9;&#x9;&#x9;&#x9;S29.75,23.582,29.75,16S23.582,2.25,16,2.25z M16,27.089C9.886,27.089,4.912,22.114,4.912,16S9.886,4.911,16,4.911&#xd;&#xa;&#x9;&#x9;&#x9;&#x9;S27.088,9.886,27.088,16S22.114,27.089,16,27.089z"/>
    <path fill="none" stroke="#3C3C3C" stroke-width="1.5" d="M23.942,10.483c-0.35-0.25-0.799-0.313-1.207-0.175&#xd;&#xa;&#x9;&#x9;&#x9;&#x9;c-0.034,0.012-3.425,1.17-6.735,1.17c-3.296,0-6.703-1.158-6.735-1.17c-0.408-0.141-0.857-0.074-1.208,0.175&#xd;&#xa;&#x9;&#x9;&#x9;&#x9;c-0.35,0.251-0.559,0.653-0.559,1.083v8.803c0,0.444,0.224,0.861,0.594,1.106c0.221,0.147,0.479,0.223,0.738,0.223&#xd;&#xa;&#x9;&#x9;&#x9;&#x9;c0.172,0,0.349-0.032,0.512-0.102c0.032-0.014,3.366-1.388,6.658-1.388c3.274,0,6.626,1.375,6.658,1.389&#xd;&#xa;&#x9;&#x9;&#x9;&#x9;c0.412,0.17,0.881,0.123,1.25-0.122c0.369-0.247,0.593-0.662,0.593-1.106v-8.803C24.501,11.137,24.293,10.732,23.942,10.483z&#xd;&#xa;&#x9;&#x9;&#x9;&#x9; M21.839,18.5c-1.467-0.443-3.635-0.952-5.839-0.952s-4.372,0.509-5.84,0.952v-5.163c1.459,0.369,3.64,0.803,5.84,0.803&#xd;&#xa;&#x9;&#x9;&#x9;&#x9;s4.381-0.434,5.839-0.803V18.5z"/>
   </g>
   <g>
    <path fill="#FFFFFF" d="M16,2.25C8.418,2.25,2.25,8.418,2.25,16S8.418,29.749,16,29.749S29.75,23.582,29.75,16&#xd;&#xa;&#x9;&#x9;&#x9;&#x9;S23.582,2.25,16,2.25z M16,27.089C9.886,27.089,4.912,22.114,4.912,16S9.886,4.911,16,4.911S27.088,9.886,27.088,16&#xd;&#xa;&#x9;&#x9;&#x9;&#x9;S22.114,27.089,16,27.089z"/>
    <path fill="#FFFFFF" d="M23.942,10.483c-0.35-0.25-0.799-0.313-1.207-0.175c-0.034,0.012-3.425,1.17-6.735,1.17&#xd;&#xa;&#x9;&#x9;&#x9;&#x9;c-3.296,0-6.703-1.158-6.735-1.17c-0.408-0.141-0.857-0.074-1.208,0.175c-0.35,0.251-0.559,0.653-0.559,1.083v8.803&#xd;&#xa;&#x9;&#x9;&#x9;&#x9;c0,0.444,0.224,0.861,0.594,1.106c0.221,0.147,0.479,0.223,0.738,0.223c0.172,0,0.349-0.032,0.512-0.102&#xd;&#xa;&#x9;&#x9;&#x9;&#x9;c0.032-0.014,3.366-1.388,6.658-1.388c3.274,0,6.626,1.375,6.658,1.389c0.412,0.17,0.881,0.123,1.25-0.122&#xd;&#xa;&#x9;&#x9;&#x9;&#x9;c0.369-0.247,0.593-0.662,0.593-1.106v-8.803C24.501,11.137,24.293,10.732,23.942,10.483z M21.839,18.5&#xd;&#xa;&#x9;&#x9;&#x9;&#x9;c-1.467-0.443-3.635-0.952-5.839-0.952s-4.372,0.509-5.84,0.952v-5.163c1.459,0.369,3.64,0.803,5.84,0.803&#xd;&#xa;&#x9;&#x9;&#x9;&#x9;s4.381-0.434,5.839-0.803V18.5z"/>
   </g>
   <g>
    <path fill="none" stroke="#1A171B" stroke-width="0.2" d="M16,2.25C8.418,2.25,2.25,8.418,2.25,16S8.418,29.749,16,29.749&#xd;&#xa;&#x9;&#x9;&#x9;&#x9;S29.75,23.582,29.75,16S23.582,2.25,16,2.25z M16,27.089C9.886,27.089,4.912,22.114,4.912,16S9.886,4.911,16,4.911&#xd;&#xa;&#x9;&#x9;&#x9;&#x9;S27.088,9.886,27.088,16S22.114,27.089,16,27.089z"/>
    <path fill="none" stroke="#1A171B" stroke-width="0.2" d="M23.942,10.483c-0.35-0.25-0.799-0.313-1.207-0.175&#xd;&#xa;&#x9;&#x9;&#x9;&#x9;c-0.034,0.012-3.425,1.17-6.735,1.17c-3.296,0-6.703-1.158-6.735-1.17c-0.408-0.141-0.857-0.074-1.208,0.175&#xd;&#xa;&#x9;&#x9;&#x9;&#x9;c-0.35,0.251-0.559,0.653-0.559,1.083v8.803c0,0.444,0.224,0.861,0.594,1.106c0.221,0.147,0.479,0.223,0.738,0.223&#xd;&#xa;&#x9;&#x9;&#x9;&#x9;c0.172,0,0.349-0.032,0.512-0.102c0.032-0.014,3.366-1.388,6.658-1.388c3.274,0,6.626,1.375,6.658,1.389&#xd;&#xa;&#x9;&#x9;&#x9;&#x9;c0.412,0.17,0.881,0.123,1.25-0.122c0.369-0.247,0.593-0.662,0.593-1.106v-8.803C24.501,11.137,24.293,10.732,23.942,10.483z&#xd;&#xa;&#x9;&#x9;&#x9;&#x9; M21.839,18.5c-1.467-0.443-3.635-0.952-5.839-0.952s-4.372,0.509-5.84,0.952v-5.163c1.459,0.369,3.64,0.803,5.84,0.803&#xd;&#xa;&#x9;&#x9;&#x9;&#x9;s4.381-0.434,5.839-0.803V18.5z"/>
   </g>
  </g>
 </g>
</svg>
