<?xml version='1.0' encoding='utf-8'?>
<!-- Generator: Adobe Illustrator 22.0.1, SVG Export Plug-In . SVG Version: 6.00 Build 0)  -->
<svg y="0px" id="Layer_1" version="1.1" style="enable-background:new 0 0 130 130;" xml:space="preserve" viewBox="0 0 130 130" xmlns="http://www.w3.org/2000/svg" x="0px" xmlns:xlink="http://www.w3.org/1999/xlink">
 <g id="Layer_1_1_">
  <path d="M65,2.6C30.6,2.6,2.6,30.6,2.6,65s27.9,62.4,62.4,62.4c34.4,0,62.4-27.9,62.4-62.4S99.4,2.6,65,2.6z M54.3,57.1&#xa;&#x9;&#x9;c0-1.5,1.2-2.7,2.7-2.7h11.6L54.3,68.7V57.1z M23.7,72.9V57.1c0-1.5,1.2-2.7,2.7-2.7h15.8c1.5,0,2.7,1.2,2.7,2.7v15.9&#xa;&#x9;&#x9;c0,1.5-1.2,2.7-2.7,2.7H26.4C24.9,75.7,23.7,74.4,23.7,72.9z M29.3,104.4c-0.4,0-0.9-0.2-1.2-0.5l-1.8-1.8c-0.7-0.7-0.7-1.7,0-2.4&#xa;&#x9;&#x9;l73.3-73.3c0.3-0.3,0.8-0.5,1.2-0.5s0.9,0.2,1.2,0.5l1.8,1.8c0.7,0.7,0.7,1.7,0,2.4l-73.3,73.3C30.1,104.2,29.7,104.4,29.3,104.4z&#xa;&#x9;&#x9; M75.7,72.9c0,1.5-1.2,2.7-2.7,2.7H61.5l14.1-14.1L75.7,72.9L75.7,72.9z M106.3,72.9c0,1.5-1.2,2.7-2.7,2.7H87.8&#xa;&#x9;&#x9;c-1.5,0-2.7-1.2-2.7-2.7V57.1c0-1.5,1.2-2.7,2.7-2.7h15.8c1.5,0,2.7,1.2,2.7,2.7C106.3,57.1,106.3,72.9,106.3,72.9z" fill="#000000"/>
 </g>
 <g id="Layer_2_1_">
  <path d="M54.3,57.1c0-1.5,1.2-2.7,2.7-2.7h11.6L54.3,68.7V57.1z M23.7,72.9V57.1c0-1.5,1.2-2.7,2.7-2.7h15.8&#xa;&#x9;&#x9;c1.5,0,2.7,1.2,2.7,2.7v15.9c0,1.5-1.2,2.7-2.7,2.7H26.4C24.9,75.7,23.7,74.4,23.7,72.9z M29.3,104.4c-0.4,0-0.9-0.2-1.2-0.5&#xa;&#x9;&#x9;l-1.8-1.8c-0.7-0.7-0.7-1.7,0-2.4l73.3-73.3c0.3-0.3,0.8-0.5,1.2-0.5s0.9,0.2,1.2,0.5l1.8,1.8c0.7,0.7,0.7,1.7,0,2.4l-73.3,73.3&#xa;&#x9;&#x9;C30.1,104.2,29.7,104.4,29.3,104.4z M75.7,72.9c0,1.5-1.2,2.7-2.7,2.7H61.5l14.1-14.1L75.7,72.9L75.7,72.9z M106.3,72.9&#xa;&#x9;&#x9;c0,1.5-1.2,2.7-2.7,2.7H87.8c-1.5,0-2.7-1.2-2.7-2.7V57.1c0-1.5,1.2-2.7,2.7-2.7h15.8c1.5,0,2.7,1.2,2.7,2.7&#xa;&#x9;&#x9;C106.3,57.1,106.3,72.9,106.3,72.9z M54.3,57.1c0-1.5,1.2-2.7,2.7-2.7h11.6L54.3,68.7V57.1z M23.7,72.9V57.1c0-1.5,1.2-2.7,2.7-2.7&#xa;&#x9;&#x9;h15.8c1.5,0,2.7,1.2,2.7,2.7v15.9c0,1.5-1.2,2.7-2.7,2.7H26.4C24.9,75.7,23.7,74.4,23.7,72.9z M29.3,104.4c-0.4,0-0.9-0.2-1.2-0.5&#xa;&#x9;&#x9;l-1.8-1.8c-0.7-0.7-0.7-1.7,0-2.4l73.3-73.3c0.3-0.3,0.8-0.5,1.2-0.5s0.9,0.2,1.2,0.5l1.8,1.8c0.7,0.7,0.7,1.7,0,2.4l-73.3,73.3&#xa;&#x9;&#x9;C30.1,104.2,29.7,104.4,29.3,104.4z M75.7,72.9c0,1.5-1.2,2.7-2.7,2.7H61.5l14.1-14.1L75.7,72.9L75.7,72.9z M106.3,72.9&#xa;&#x9;&#x9;c0,1.5-1.2,2.7-2.7,2.7H87.8c-1.5,0-2.7-1.2-2.7-2.7V57.1c0-1.5,1.2-2.7,2.7-2.7h15.8c1.5,0,2.7,1.2,2.7,2.7&#xa;&#x9;&#x9;C106.3,57.1,106.3,72.9,106.3,72.9z" fill="#FFFFFF"/>
 </g>
</svg>
