<?xml version='1.0' encoding='utf-8'?>
<!-- Generator: Adobe Illustrator 22.0.1, SVG Export Plug-In . SVG Version: 6.00 Build 0)  -->
<svg y="0px" id="Layer_1" version="1.1" style="enable-background:new 0 0 130 130;" xml:space="preserve" viewBox="0 0 130 130" xmlns="http://www.w3.org/2000/svg" x="0px" xmlns:xlink="http://www.w3.org/1999/xlink">
 <g id="Layer_1_1_">
  <path d="M65,8.9C34,8.9,8.9,34,8.9,65S34,121.1,65,121.1c31,0,56.1-25.1,56.1-56.1S96,8.9,65,8.9z M55.4,57.8&#xa;&#x9;&#x9;c0-1.3,1.1-2.4,2.5-2.4h10.4L55.4,68.3V57.8z M27.8,72.2V57.8c0-1.3,1.1-2.4,2.5-2.4h14.3c1.4,0,2.5,1.1,2.5,2.4v14.3&#xa;&#x9;&#x9;c0,1.3-1.1,2.4-2.5,2.4H30.3C28.9,74.6,27.8,73.5,27.8,72.2z M32.8,100.4c-0.4,0-0.8-0.1-1.1-0.4l-1.7-1.7c-0.6-0.6-0.6-1.6,0-2.2&#xa;&#x9;&#x9;l66-66c0.3-0.3,0.7-0.4,1.1-0.4c0.4,0,0.8,0.1,1.1,0.4l1.7,1.7c0.6,0.6,0.6,1.6,0,2.2l-66,66C33.6,100.3,33.2,100.4,32.8,100.4z&#xa;&#x9;&#x9; M74.6,72.2c0,1.3-1.1,2.4-2.5,2.4H61.9l12.7-12.7L74.6,72.2L74.6,72.2z M102.2,72.2c0,1.3-1.1,2.4-2.5,2.4H85.5&#xa;&#x9;&#x9;c-1.4,0-2.5-1.1-2.5-2.4V57.8c0-1.3,1.1-2.4,2.5-2.4h14.2c1.4,0,2.5,1.1,2.5,2.4C102.2,57.8,102.2,72.2,102.2,72.2z" fill="#000000"/>
 </g>
 <g id="Layer_2_1_">
  <path d="M55.4,57.8c0-1.3,1.1-2.4,2.5-2.4h10.4L55.4,68.3V57.8z M27.8,72.2V57.8c0-1.3,1.1-2.4,2.5-2.4h14.3&#xa;&#x9;&#x9;c1.4,0,2.5,1.1,2.5,2.4v14.3c0,1.3-1.1,2.4-2.5,2.4H30.3C28.9,74.6,27.8,73.5,27.8,72.2z M32.8,100.4c-0.4,0-0.8-0.1-1.1-0.4&#xa;&#x9;&#x9;l-1.7-1.7c-0.6-0.6-0.6-1.6,0-2.2l66-66c0.3-0.3,0.7-0.4,1.1-0.4c0.4,0,0.8,0.1,1.1,0.4l1.7,1.7c0.6,0.6,0.6,1.6,0,2.2l-66,66&#xa;&#x9;&#x9;C33.6,100.3,33.2,100.4,32.8,100.4z M74.6,72.2c0,1.3-1.1,2.4-2.5,2.4H61.9l12.7-12.7L74.6,72.2L74.6,72.2z M102.2,72.2&#xa;&#x9;&#x9;c0,1.3-1.1,2.4-2.5,2.4H85.5c-1.4,0-2.5-1.1-2.5-2.4V57.8c0-1.3,1.1-2.4,2.5-2.4h14.2c1.4,0,2.5,1.1,2.5,2.4&#xa;&#x9;&#x9;C102.2,57.8,102.2,72.2,102.2,72.2z M55.4,57.8c0-1.3,1.1-2.4,2.5-2.4h10.4L55.4,68.3V57.8z M27.8,72.2V57.8c0-1.3,1.1-2.4,2.5-2.4&#xa;&#x9;&#x9;h14.3c1.4,0,2.5,1.1,2.5,2.4v14.3c0,1.3-1.1,2.4-2.5,2.4H30.3C28.9,74.6,27.8,73.5,27.8,72.2z M32.8,100.4c-0.4,0-0.8-0.1-1.1-0.4&#xa;&#x9;&#x9;l-1.7-1.7c-0.6-0.6-0.6-1.6,0-2.2l66-66c0.3-0.3,0.7-0.4,1.1-0.4c0.4,0,0.8,0.1,1.1,0.4l1.7,1.7c0.6,0.6,0.6,1.6,0,2.2l-66,66&#xa;&#x9;&#x9;C33.6,100.3,33.2,100.4,32.8,100.4z M74.6,72.2c0,1.3-1.1,2.4-2.5,2.4H61.9l12.7-12.7L74.6,72.2L74.6,72.2z M102.2,72.2&#xa;&#x9;&#x9;c0,1.3-1.1,2.4-2.5,2.4H85.5c-1.4,0-2.5-1.1-2.5-2.4V57.8c0-1.3,1.1-2.4,2.5-2.4h14.2c1.4,0,2.5,1.1,2.5,2.4&#xa;&#x9;&#x9;C102.2,57.8,102.2,72.2,102.2,72.2z" fill="#FFFFFF"/>
 </g>
</svg>
