<?xml version='1.0' encoding='utf-8'?>
<!DOCTYPE svg PUBLIC '-//W3C//DTD SVG 1.1//EN' 'http://www.w3.org/Graphics/SVG/1.1/DTD/svg11.dtd'>
<!-- Generator: Adobe Illustrator 16.0.0, SVG Export Plug-In . SVG Version: 6.00 Build 0)  -->
<svg x="0px" viewBox="0 0 32 32" height="32px" xmlns:xlink="http://www.w3.org/1999/xlink" width="32px" enable-background="new 0 0 32 32" y="0px" xmlns="http://www.w3.org/2000/svg" xml:space="preserve" version="1.1">
 <g id="Layer_1">
  <g id="Layer_1_1_"/>
 </g>
 <g id="Ebene_1_1_">
  <g>
   <g opacity="0.4">
    <path fill="none" stroke="#3C3C3C" stroke-width="1.5" d="M15.999,2.251C8.417,2.251,2.25,8.419,2.25,16&#xd;&#xa;&#x9;&#x9;&#x9;&#x9;s6.167,13.749,13.749,13.749c7.583,0,13.749-6.168,13.749-13.749S23.582,2.251,15.999,2.251z M15.999,27.087&#xd;&#xa;&#x9;&#x9;&#x9;&#x9;C9.886,27.087,4.911,22.113,4.911,16S9.886,4.912,15.999,4.912S27.088,9.887,27.088,16S22.112,27.087,15.999,27.087z"/>
    <path fill="none" stroke="#3C3C3C" stroke-width="1.5" d="M10.798,13.273H8.162c-0.778,0-1.408,0.631-1.408,1.408v2.637&#xd;&#xa;&#x9;&#x9;&#x9;&#x9;c0,0.777,0.63,1.408,1.408,1.408h2.636c0.777,0,1.408-0.631,1.408-1.408v-2.637C12.206,13.904,11.575,13.273,10.798,13.273z"/>
    <path fill="none" stroke="#3C3C3C" stroke-width="1.5" d="M17.268,13.273h-2.636c-0.777,0-1.408,0.631-1.408,1.408v2.637&#xd;&#xa;&#x9;&#x9;&#x9;&#x9;c0,0.777,0.631,1.407,1.408,1.407h2.636c0.777,0,1.407-0.63,1.407-1.407v-2.637C18.675,13.904,18.045,13.273,17.268,13.273z"/>
    <path fill="none" stroke="#3C3C3C" stroke-width="1.5" d="M23.738,13.273h-2.636c-0.778,0-1.409,0.631-1.409,1.408v2.637&#xd;&#xa;&#x9;&#x9;&#x9;&#x9;c0,0.777,0.631,1.407,1.409,1.407h2.636c0.778,0,1.409-0.63,1.409-1.407v-2.637C25.147,13.904,24.517,13.273,23.738,13.273z"/>
   </g>
   <g>
    <path fill="#FFFFFF" d="M15.999,2.251C8.417,2.251,2.25,8.419,2.25,16s6.167,13.749,13.749,13.749&#xd;&#xa;&#x9;&#x9;&#x9;&#x9;c7.583,0,13.749-6.168,13.749-13.749S23.582,2.251,15.999,2.251z M15.999,27.087C9.886,27.087,4.911,22.113,4.911,16&#xd;&#xa;&#x9;&#x9;&#x9;&#x9;S9.886,4.912,15.999,4.912S27.088,9.887,27.088,16S22.112,27.087,15.999,27.087z"/>
    <path fill="#FFFFFF" d="M10.798,13.273H8.162c-0.778,0-1.408,0.631-1.408,1.408v2.637c0,0.777,0.63,1.408,1.408,1.408h2.636&#xd;&#xa;&#x9;&#x9;&#x9;&#x9;c0.777,0,1.408-0.631,1.408-1.408v-2.637C12.206,13.904,11.575,13.273,10.798,13.273z"/>
    <path fill="#FFFFFF" d="M17.268,13.273h-2.636c-0.777,0-1.408,0.631-1.408,1.408v2.637c0,0.777,0.631,1.407,1.408,1.407h2.636&#xd;&#xa;&#x9;&#x9;&#x9;&#x9;c0.777,0,1.407-0.63,1.407-1.407v-2.637C18.675,13.904,18.045,13.273,17.268,13.273z"/>
    <path fill="#FFFFFF" d="M23.738,13.273h-2.636c-0.778,0-1.409,0.631-1.409,1.408v2.637c0,0.777,0.631,1.407,1.409,1.407h2.636&#xd;&#xa;&#x9;&#x9;&#x9;&#x9;c0.778,0,1.409-0.63,1.409-1.407v-2.637C25.147,13.904,24.517,13.273,23.738,13.273z"/>
   </g>
   <g>
    <path fill="none" stroke="#000000" stroke-width="0.2" d="M15.999,2.251C8.417,2.251,2.25,8.419,2.25,16&#xd;&#xa;&#x9;&#x9;&#x9;&#x9;s6.167,13.749,13.749,13.749c7.583,0,13.749-6.168,13.749-13.749S23.582,2.251,15.999,2.251z M15.999,27.087&#xd;&#xa;&#x9;&#x9;&#x9;&#x9;C9.886,27.087,4.911,22.113,4.911,16S9.886,4.912,15.999,4.912S27.088,9.887,27.088,16S22.112,27.087,15.999,27.087z"/>
    <path fill="none" stroke="#000000" stroke-width="0.2" d="M10.798,13.273H8.162c-0.778,0-1.408,0.631-1.408,1.408v2.637&#xd;&#xa;&#x9;&#x9;&#x9;&#x9;c0,0.777,0.63,1.408,1.408,1.408h2.636c0.777,0,1.408-0.631,1.408-1.408v-2.637C12.206,13.904,11.575,13.273,10.798,13.273z"/>
    <path fill="none" stroke="#000000" stroke-width="0.2" d="M17.268,13.273h-2.636c-0.777,0-1.408,0.631-1.408,1.408v2.637&#xd;&#xa;&#x9;&#x9;&#x9;&#x9;c0,0.777,0.631,1.407,1.408,1.407h2.636c0.777,0,1.407-0.63,1.407-1.407v-2.637C18.675,13.904,18.045,13.273,17.268,13.273z"/>
    <path fill="none" stroke="#000000" stroke-width="0.2" d="M23.738,13.273h-2.636c-0.778,0-1.409,0.631-1.409,1.408v2.637&#xd;&#xa;&#x9;&#x9;&#x9;&#x9;c0,0.777,0.631,1.407,1.409,1.407h2.636c0.778,0,1.409-0.63,1.409-1.407v-2.637C25.147,13.904,24.517,13.273,23.738,13.273z"/>
   </g>
  </g>
 </g>
</svg>
