<?xml version='1.0' encoding='utf-8'?>
<!DOCTYPE svg PUBLIC '-//W3C//DTD SVG 1.1//EN' 'http://www.w3.org/Graphics/SVG/1.1/DTD/svg11.dtd'>
<!-- Generator: Adobe Illustrator 16.0.0, SVG Export Plug-In . SVG Version: 6.00 Build 0)  -->
<svg x="0px" viewBox="0 0 32 32" height="32px" xmlns:xlink="http://www.w3.org/1999/xlink" width="32px" enable-background="new 0 0 32 32" y="0px" xmlns="http://www.w3.org/2000/svg" xml:space="preserve" version="1.1">
 <g id="Layer_1">
  <g id="Layer_1_1_"/>
 </g>
 <g id="Ebene_1_1_">
  <g>
   <g opacity="0.4">
    <path fill="none" stroke="#3C3C3C" stroke-width="1.5" d="M16,3.501C9.107,3.501,3.5,9.108,3.5,16S9.107,28.499,16,28.499&#xd;&#xa;&#x9;&#x9;&#x9;&#x9;c6.893,0,12.499-5.607,12.499-12.499S22.893,3.501,16,3.501z M16,26.079c-5.558,0-10.08-4.521-10.08-10.079S10.442,5.92,16,5.92&#xd;&#xa;&#x9;&#x9;&#x9;&#x9;c5.557,0,10.081,4.522,10.081,10.08S21.557,26.079,16,26.079z"/>
    <path fill="none" stroke="#3C3C3C" stroke-width="1.5" d="M11.271,13.521H8.875c-0.707,0-1.28,0.573-1.28,1.28v2.396&#xd;&#xa;&#x9;&#x9;&#x9;&#x9;c0,0.707,0.573,1.28,1.28,1.28h2.396c0.707,0,1.28-0.573,1.28-1.28v-2.396C12.551,14.095,11.978,13.521,11.271,13.521z"/>
    <path fill="none" stroke="#3C3C3C" stroke-width="1.5" d="M17.152,13.521h-2.396c-0.707,0-1.28,0.573-1.28,1.28v2.396&#xd;&#xa;&#x9;&#x9;&#x9;&#x9;c0,0.707,0.573,1.279,1.28,1.279h2.396c0.707,0,1.279-0.572,1.279-1.279v-2.396C18.432,14.095,17.859,13.521,17.152,13.521z"/>
    <path fill="none" stroke="#3C3C3C" stroke-width="1.5" d="M23.035,13.521h-2.396c-0.707,0-1.281,0.573-1.281,1.28v2.396&#xd;&#xa;&#x9;&#x9;&#x9;&#x9;c0,0.707,0.574,1.279,1.281,1.279h2.396c0.707,0,1.281-0.572,1.281-1.279v-2.396C24.316,14.095,23.742,13.521,23.035,13.521z"/>
   </g>
   <g>
    <path fill="#FFFFFF" d="M16,3.501C9.107,3.501,3.5,9.108,3.5,16S9.107,28.499,16,28.499c6.893,0,12.499-5.607,12.499-12.499&#xd;&#xa;&#x9;&#x9;&#x9;&#x9;S22.893,3.501,16,3.501z M16,26.079c-5.558,0-10.08-4.521-10.08-10.079S10.442,5.92,16,5.92c5.557,0,10.081,4.522,10.081,10.08&#xd;&#xa;&#x9;&#x9;&#x9;&#x9;S21.557,26.079,16,26.079z"/>
    <path fill="#FFFFFF" d="M11.271,13.521H8.875c-0.707,0-1.28,0.573-1.28,1.28v2.396c0,0.707,0.573,1.28,1.28,1.28h2.396&#xd;&#xa;&#x9;&#x9;&#x9;&#x9;c0.707,0,1.28-0.573,1.28-1.28v-2.396C12.551,14.095,11.978,13.521,11.271,13.521z"/>
    <path fill="#FFFFFF" d="M17.152,13.521h-2.396c-0.707,0-1.28,0.573-1.28,1.28v2.396c0,0.707,0.573,1.279,1.28,1.279h2.396&#xd;&#xa;&#x9;&#x9;&#x9;&#x9;c0.707,0,1.279-0.572,1.279-1.279v-2.396C18.432,14.095,17.859,13.521,17.152,13.521z"/>
    <path fill="#FFFFFF" d="M23.035,13.521h-2.396c-0.707,0-1.281,0.573-1.281,1.28v2.396c0,0.707,0.574,1.279,1.281,1.279h2.396&#xd;&#xa;&#x9;&#x9;&#x9;&#x9;c0.707,0,1.281-0.572,1.281-1.279v-2.396C24.316,14.095,23.742,13.521,23.035,13.521z"/>
   </g>
   <g>
    <path fill="none" stroke="#000000" stroke-width="0.2" d="M16,3.501C9.107,3.501,3.5,9.108,3.5,16S9.107,28.499,16,28.499&#xd;&#xa;&#x9;&#x9;&#x9;&#x9;c6.893,0,12.499-5.607,12.499-12.499S22.893,3.501,16,3.501z M16,26.079c-5.558,0-10.08-4.521-10.08-10.079S10.442,5.92,16,5.92&#xd;&#xa;&#x9;&#x9;&#x9;&#x9;c5.557,0,10.081,4.522,10.081,10.08S21.557,26.079,16,26.079z"/>
    <path fill="none" stroke="#000000" stroke-width="0.2" d="M11.271,13.521H8.875c-0.707,0-1.28,0.573-1.28,1.28v2.396&#xd;&#xa;&#x9;&#x9;&#x9;&#x9;c0,0.707,0.573,1.28,1.28,1.28h2.396c0.707,0,1.28-0.573,1.28-1.28v-2.396C12.551,14.095,11.978,13.521,11.271,13.521z"/>
    <path fill="none" stroke="#000000" stroke-width="0.2" d="M17.152,13.521h-2.396c-0.707,0-1.28,0.573-1.28,1.28v2.396&#xd;&#xa;&#x9;&#x9;&#x9;&#x9;c0,0.707,0.573,1.279,1.28,1.279h2.396c0.707,0,1.279-0.572,1.279-1.279v-2.396C18.432,14.095,17.859,13.521,17.152,13.521z"/>
    <path fill="none" stroke="#000000" stroke-width="0.2" d="M23.035,13.521h-2.396c-0.707,0-1.281,0.573-1.281,1.28v2.396&#xd;&#xa;&#x9;&#x9;&#x9;&#x9;c0,0.707,0.574,1.279,1.281,1.279h2.396c0.707,0,1.281-0.572,1.281-1.279v-2.396C24.316,14.095,23.742,13.521,23.035,13.521z"/>
   </g>
  </g>
 </g>
</svg>
